<?xml version="1.0" encoding="UTF-8" standalone="no"?>
<!DOCTYPE svg PUBLIC "-//W3C//DTD SVG 1.1//EN" "http://www.w3.org/Graphics/SVG/1.1/DTD/svg11.dtd">
<svg width="100%" height="100%" viewBox="0 0 1050 380" version="1.1" xmlns="http://www.w3.org/2000/svg" xmlns:xlink="http://www.w3.org/1999/xlink" xml:space="preserve" xmlns:serif="http://www.serif.com/" style="fill-rule:evenodd;clip-rule:evenodd;">
    <g id="BG" transform="matrix(1.66667,0,0,1,0,0)">
        <rect x="0" y="0" width="630" height="380" style="fill-rule:nonzero;"/>
    </g>
    <g id="LOGO" transform="matrix(1.02952,0,0,1.02952,-31.5901,-260.196)">
        <g transform="matrix(9.52125,0,0,9.52125,34.1712,602.797)">
            <path d="M0.146,-0.146L0.537,-0.146L0.537,-0L0,-0L0,-0.684L0.146,-0.684L0.146,-0.146Z" style="fill:white;fill-rule:nonzero;"/>
        </g>
        <g transform="matrix(9.52125,0,0,9.52125,40.2261,602.797)">
            <rect x="0" y="-0.684" width="0.146" height="0.684" style="fill:white;fill-rule:nonzero;"/>
        </g>
        <g transform="matrix(9.52125,0,0,9.52125,42.5618,602.797)">
            <path d="M0.146,-0.387L0.146,-0L0,-0L0,-0.748L0.439,-0.296L0.439,-0.684L0.586,-0.684L0.586,0.064L0.146,-0.387Z" style="fill:white;fill-rule:nonzero;"/>
        </g>
        <g transform="matrix(9.52125,0,0,9.52125,49.0816,602.797)">
            <path d="M0.586,-0.244C0.586,-0.081 0.505,-0 0.342,-0L0,-0L0,-0.684L0.342,-0.684C0.505,-0.684 0.586,-0.602 0.586,-0.439L0.586,-0.244ZM0.342,-0.146C0.407,-0.146 0.439,-0.179 0.439,-0.244L0.439,-0.439C0.439,-0.505 0.407,-0.537 0.342,-0.537L0.146,-0.537L0.146,-0.146L0.342,-0.146Z" style="fill:white;fill-rule:nonzero;"/>
        </g>
        <g transform="matrix(9.52125,0,0,9.52125,55.6014,602.797)">
            <path d="M0.537,-0.684L0.537,-0.537L0.146,-0.537L0.146,-0.439L0.488,-0.439L0.488,-0.293L0.146,-0.293L0.146,-0.146L0.537,-0.146L0.537,-0L0,-0L0,-0.684L0.537,-0.684Z" style="fill:white;fill-rule:nonzero;"/>
        </g>
        <g transform="matrix(9.52125,0,0,9.52125,61.6563,602.797)">
            <path d="M0.146,-0.387L0.146,-0L0,-0L0,-0.748L0.439,-0.296L0.439,-0.684L0.586,-0.684L0.586,0.064L0.146,-0.387Z" style="fill:white;fill-rule:nonzero;"/>
        </g>
        <g transform="matrix(9.52125,0,0,9.52125,68.1762,602.797)">
            <path d="M0.342,-0.293L0.146,-0.293L0.146,-0.146L0.342,-0.146C0.407,-0.146 0.439,-0.163 0.439,-0.195L0.439,-0.244C0.439,-0.277 0.407,-0.293 0.342,-0.293ZM0.342,-0.439C0.407,-0.439 0.439,-0.456 0.439,-0.488C0.439,-0.521 0.407,-0.537 0.342,-0.537L0.146,-0.537L0.146,-0.439L0.342,-0.439ZM0.549,-0.366C0.574,-0.335 0.586,-0.295 0.586,-0.244L0.586,-0.195C0.586,-0.065 0.505,-0 0.342,-0L0,-0L0,-0.684L0.342,-0.684C0.505,-0.684 0.586,-0.618 0.586,-0.488C0.586,-0.438 0.574,-0.397 0.549,-0.366Z" style="fill:white;fill-rule:nonzero;"/>
        </g>
        <g transform="matrix(9.52125,0,0,9.52125,74.696,602.797)">
            <path d="M0.537,-0.684L0.537,-0.537L0.146,-0.537L0.146,-0.439L0.488,-0.439L0.488,-0.293L0.146,-0.293L0.146,-0.146L0.537,-0.146L0.537,-0L0,-0L0,-0.684L0.537,-0.684Z" style="fill:white;fill-rule:nonzero;"/>
        </g>
        <g transform="matrix(9.52125,0,0,9.52125,80.7509,602.797)">
            <path d="M0.586,-0.439C0.586,-0.297 0.523,-0.217 0.398,-0.199L0.598,-0L0.391,-0L0.146,-0.244L0.146,-0L0,-0L0,-0.684L0.342,-0.684C0.505,-0.684 0.586,-0.602 0.586,-0.439ZM0.342,-0.342C0.407,-0.342 0.439,-0.374 0.439,-0.439C0.439,-0.505 0.407,-0.537 0.342,-0.537L0.146,-0.537L0.146,-0.342L0.342,-0.342Z" style="fill:white;fill-rule:nonzero;"/>
        </g>
        <g transform="matrix(9.52125,0,0,9.52125,87.2707,602.797)">
            <path d="M0.244,-0.684L0.488,-0.684L0.488,-0.537L0.244,-0.537C0.179,-0.537 0.146,-0.505 0.146,-0.439L0.146,-0.244C0.146,-0.179 0.179,-0.146 0.244,-0.146L0.342,-0.146C0.407,-0.146 0.439,-0.179 0.439,-0.244L0.439,-0.293L0.244,-0.293L0.244,-0.439L0.586,-0.439L0.586,-0.244C0.586,-0.081 0.505,-0 0.342,-0L0.244,-0C0.081,-0 0,-0.081 0,-0.244L0,-0.439C0,-0.602 0.081,-0.684 0.244,-0.684Z" style="fill:white;fill-rule:nonzero;"/>
        </g>
    </g>
    <g transform="matrix(1,0,0,1,-22,-83)">
        <g transform="matrix(8,0,0,8,28.924,124.932)">
            <rect x="0.073" y="-0.711" width="0.146" height="0.711" style="fill:white;fill-rule:nonzero;"/>
        </g>
        <g transform="matrix(8,0,0,8,31.252,124.932)">
            <path d="M0.642,-0L0.642,-0.711L0.496,-0.711L0.496,-0.242L0.21,-0.711L0.063,-0.711L0.063,-0L0.21,-0L0.21,-0.468L0.495,-0L0.642,-0Z" style="fill:white;fill-rule:nonzero;"/>
        </g>
        <g transform="matrix(8,0,0,8,36.9,124.932)">
            <path d="M0.21,-0.25L0.341,-0.25C0.383,-0.25 0.421,-0.255 0.454,-0.266C0.543,-0.295 0.608,-0.36 0.608,-0.476C0.608,-0.509 0.602,-0.541 0.59,-0.57C0.553,-0.658 0.466,-0.711 0.341,-0.711L0.063,-0.711L0.063,-0L0.21,-0L0.21,-0.25ZM0.46,-0.475C0.46,-0.403 0.414,-0.369 0.341,-0.369L0.21,-0.369L0.21,-0.592L0.341,-0.592C0.415,-0.592 0.46,-0.548 0.46,-0.475Z" style="fill:white;fill-rule:nonzero;"/>
        </g>
        <g transform="matrix(8,0,0,8,42.06,124.932)">
            <path d="M0.329,-0.108C0.245,-0.108 0.203,-0.154 0.203,-0.242L0.203,-0.711L0.057,-0.711L0.057,-0.242C0.057,-0.201 0.064,-0.164 0.077,-0.133C0.116,-0.043 0.201,0.01 0.329,0.01C0.368,0.01 0.405,0.005 0.438,-0.006C0.535,-0.037 0.602,-0.114 0.602,-0.242L0.602,-0.711L0.455,-0.711L0.455,-0.242C0.455,-0.154 0.414,-0.108 0.329,-0.108Z" style="fill:white;fill-rule:nonzero;"/>
        </g>
        <g transform="matrix(8,0,0,8,47.324,124.932)">
            <path d="M0.599,-0.592L0.599,-0.711L0.02,-0.711L0.02,-0.592L0.234,-0.592L0.234,-0L0.381,-0L0.381,-0.592L0.599,-0.592Z" style="fill:white;fill-rule:nonzero;"/>
        </g>
        <g transform="matrix(8,0,0,8,52.268,124.932)">
            <path d="M0.321,-0.106C0.236,-0.106 0.181,-0.138 0.181,-0.224L0.034,-0.224C0.034,-0.197 0.038,-0.173 0.046,-0.151C0.081,-0.049 0.184,0.01 0.321,0.01C0.36,0.01 0.396,0.006 0.428,-0.004C0.512,-0.027 0.579,-0.083 0.579,-0.188C0.579,-0.217 0.574,-0.243 0.564,-0.266C0.528,-0.35 0.438,-0.389 0.343,-0.418C0.297,-0.432 0.262,-0.447 0.238,-0.463C0.214,-0.478 0.202,-0.498 0.202,-0.521C0.202,-0.581 0.253,-0.604 0.315,-0.604C0.386,-0.604 0.433,-0.57 0.433,-0.501L0.579,-0.501C0.579,-0.533 0.573,-0.562 0.56,-0.589C0.523,-0.67 0.437,-0.721 0.318,-0.721C0.279,-0.721 0.244,-0.716 0.212,-0.707C0.13,-0.682 0.056,-0.626 0.056,-0.522C0.056,-0.491 0.062,-0.464 0.074,-0.441C0.115,-0.364 0.203,-0.327 0.293,-0.298C0.322,-0.289 0.345,-0.281 0.363,-0.273C0.402,-0.255 0.432,-0.238 0.432,-0.187C0.432,-0.128 0.382,-0.106 0.321,-0.106Z" style="fill:white;fill-rule:nonzero;"/>
        </g>
    </g>
    <g transform="matrix(1.684,0,0,1.684,21.7059,150.048)">
        <g transform="matrix(8,0,0,8,28.924,124.932)">
            <path d="M0.448,-0.042L0.484,-0L0.645,-0L0.538,-0.124C0.58,-0.18 0.615,-0.234 0.624,-0.311L0.51,-0.315C0.499,-0.282 0.481,-0.254 0.453,-0.223L0.331,-0.366L0.376,-0.398C0.423,-0.431 0.471,-0.477 0.471,-0.555C0.471,-0.578 0.467,-0.599 0.459,-0.619C0.434,-0.678 0.374,-0.721 0.29,-0.721C0.261,-0.721 0.234,-0.717 0.21,-0.708C0.143,-0.682 0.096,-0.624 0.096,-0.534C0.096,-0.507 0.102,-0.481 0.114,-0.456C0.126,-0.431 0.143,-0.404 0.164,-0.376C0.145,-0.363 0.127,-0.349 0.111,-0.336C0.071,-0.303 0.035,-0.261 0.035,-0.191C0.035,-0.162 0.04,-0.135 0.051,-0.11C0.083,-0.035 0.16,0.01 0.267,0.01C0.343,0.01 0.399,-0.01 0.448,-0.042ZM0.274,-0.104C0.216,-0.104 0.176,-0.141 0.176,-0.199C0.176,-0.241 0.196,-0.266 0.22,-0.287L0.23,-0.294L0.37,-0.132C0.34,-0.113 0.308,-0.104 0.274,-0.104ZM0.289,-0.607C0.326,-0.607 0.354,-0.582 0.354,-0.546C0.354,-0.505 0.329,-0.486 0.303,-0.468L0.265,-0.443C0.252,-0.46 0.242,-0.477 0.234,-0.492C0.226,-0.507 0.222,-0.521 0.222,-0.536C0.222,-0.578 0.246,-0.607 0.289,-0.607Z" style="fill:white;fill-rule:nonzero;"/>
        </g>
    </g>
    <g id="Components">
        <g id="Port" transform="matrix(1,0,0,1,-1.29596,9)">
            <g id="PortFrame" transform="matrix(1,0,0,1,5.5,135)">
                <path d="M5,0L29,0C31.77,0 34,2.23 34,5L34,33C34,35.77 31.77,38 29,38L5,38C2.23,38 0,35.77 0,33L0,5C0,2.23 2.23,0 5,0Z" style="fill:rgb(105,105,105);fill-rule:nonzero;"/>
            </g>
            <g transform="matrix(1.31255,0,0,1.31255,-19.4393,6.67207)">
                <g transform="matrix(9,0,0,9,28.924,124.932)">
                    <path d="M0.335,-0.11C0.216,-0.11 0.19,-0.211 0.19,-0.332L0.19,-0.379C0.19,-0.507 0.222,-0.601 0.337,-0.601C0.429,-0.601 0.471,-0.556 0.476,-0.47L0.623,-0.47C0.606,-0.625 0.51,-0.721 0.337,-0.721C0.292,-0.721 0.252,-0.713 0.216,-0.697C0.105,-0.649 0.042,-0.536 0.042,-0.378L0.042,-0.332C0.042,-0.279 0.049,-0.232 0.063,-0.19C0.1,-0.074 0.185,0.01 0.335,0.01C0.379,0.01 0.418,0.004 0.453,-0.009C0.548,-0.043 0.613,-0.118 0.622,-0.237L0.475,-0.237C0.47,-0.152 0.426,-0.11 0.335,-0.11Z" style="fill-rule:nonzero;"/>
                </g>
            </g>
        </g>
        <g id="Port1" serif:id="Port" transform="matrix(1,0,0,1,-1.29596,-39)">
            <g id="PortFrame1" serif:id="PortFrame" transform="matrix(1,0,0,1,5.5,135)">
                <path d="M5,0L29,0C31.77,0 34,2.23 34,5L34,33C34,35.77 31.77,38 29,38L5,38C2.23,38 0,35.77 0,33L0,5C0,2.23 2.23,0 5,0Z" style="fill:rgb(105,105,105);fill-rule:nonzero;"/>
            </g>
            <g transform="matrix(1.31255,0,0,1.31255,-19.4393,6.67207)">
                <g transform="matrix(9,0,0,9,28.924,124.932)">
                    <path d="M0.592,-0.209C0.592,-0.295 0.544,-0.348 0.474,-0.366C0.532,-0.388 0.576,-0.438 0.576,-0.516C0.576,-0.549 0.57,-0.578 0.558,-0.602C0.519,-0.681 0.43,-0.711 0.312,-0.711L0.063,-0.711L0.063,0L0.335,0C0.488,0 0.592,-0.062 0.592,-0.209ZM0.445,-0.21C0.445,-0.147 0.4,-0.118 0.335,-0.118L0.21,-0.118L0.21,-0.31L0.341,-0.31C0.41,-0.31 0.445,-0.278 0.445,-0.21ZM0.429,-0.501C0.429,-0.438 0.384,-0.414 0.318,-0.413L0.21,-0.413L0.21,-0.592L0.312,-0.592C0.385,-0.592 0.429,-0.571 0.429,-0.501Z" style="fill-rule:nonzero;"/>
                </g>
            </g>
        </g>
        <g id="Port2" serif:id="Port" transform="matrix(1,0,0,1,-1.29596,-87)">
            <g id="PortFrame2" serif:id="PortFrame" transform="matrix(1,0,0,1,5.5,135)">
                <path d="M5,0L29,0C31.77,0 34,2.23 34,5L34,33C34,35.77 31.77,38 29,38L5,38C2.23,38 0,35.77 0,33L0,5C0,2.23 2.23,0 5,0Z" style="fill:rgb(105,105,105);fill-rule:nonzero;"/>
            </g>
            <g transform="matrix(1.31255,0,0,1.31255,-19.4393,6.67207)">
                <g transform="matrix(9,0,0,9,28.924,124.932)">
                    <path d="M0.465,-0.146L0.514,-0L0.67,-0L0.404,-0.711L0.268,-0.711L0.003,-0L0.159,-0L0.208,-0.146L0.465,-0.146ZM0.248,-0.265L0.336,-0.531L0.425,-0.265L0.248,-0.265Z" style="fill-rule:nonzero;"/>
                </g>
            </g>
        </g>
        <g id="Port3" serif:id="Port" transform="matrix(1,0,0,1,-1.29596,57)">
            <g id="PortFrame3" serif:id="PortFrame" transform="matrix(1,0,0,1,5.5,135)">
                <path d="M5,0L29,0C31.77,0 34,2.23 34,5L34,33C34,35.77 31.77,38 29,38L5,38C2.23,38 0,35.77 0,33L0,5C0,2.23 2.23,0 5,0Z" style="fill:rgb(105,105,105);fill-rule:nonzero;"/>
            </g>
            <g transform="matrix(1.31255,0,0,1.31255,-19.4393,6.67207)">
                <g transform="matrix(9,0,0,9,28.924,124.932)">
                    <path d="M0.063,-0L0.281,-0C0.329,-0 0.373,-0.008 0.413,-0.025C0.529,-0.072 0.607,-0.178 0.607,-0.339L0.607,-0.371C0.607,-0.422 0.599,-0.468 0.583,-0.51C0.538,-0.626 0.44,-0.711 0.282,-0.711L0.063,-0.711L0.063,-0ZM0.458,-0.372L0.458,-0.339C0.458,-0.208 0.406,-0.118 0.281,-0.118L0.21,-0.118L0.21,-0.592L0.282,-0.592C0.408,-0.592 0.458,-0.504 0.458,-0.372Z" style="fill-rule:nonzero;"/>
                </g>
            </g>
        </g>
        <g transform="matrix(1,0,0,1,64,161.5)">
            <g id="scale">
                <g id="g58207">
                    <g transform="matrix(1,0,0,1,-11.2,17.7885)">
                        <g id="g58165">
                            <g id="text58163">
                                <path id="path58461" d="M3.512,-1.96C3.512,-1.304 3.377,-0.803 3.105,-0.456C2.834,-0.109 2.437,0.065 1.914,0.065C1.398,0.065 1.003,-0.105 0.729,-0.446C0.456,-0.787 0.316,-1.275 0.309,-1.911L0.309,-2.783C0.309,-3.445 0.446,-3.947 0.719,-4.29C0.995,-4.633 1.391,-4.805 1.908,-4.805C2.424,-4.805 2.819,-4.634 3.092,-4.294C3.366,-3.955 3.506,-3.468 3.512,-2.832L3.512,-1.96ZM2.572,-2.917C2.572,-3.309 2.517,-3.595 2.409,-3.773C2.303,-3.953 2.135,-4.043 1.908,-4.043C1.686,-4.043 1.522,-3.957 1.416,-3.786C1.312,-3.617 1.257,-3.351 1.25,-2.988L1.25,-1.836C1.25,-1.45 1.302,-1.162 1.406,-0.973C1.513,-0.787 1.682,-0.693 1.914,-0.693C2.144,-0.693 2.31,-0.783 2.412,-0.964C2.514,-1.144 2.567,-1.419 2.572,-1.79L2.572,-2.917Z" style="fill:rgb(238,238,238);fill-rule:nonzero;"/>
                            </g>
                        </g>
                    </g>
                    <g id="g58169" transform="matrix(-0.866025,0.5,-0.5,-0.866025,-12.9904,7.5)">
                        <path id="polyline58167" d="M0,0L2.5,0" style="fill:none;fill-rule:nonzero;stroke:rgb(204,204,204);stroke-width:0.7px;"/>
                    </g>
                    <g id="g58173" transform="matrix(-1,-7.65714e-16,7.65714e-16,-1,-15,-5.74285e-15)">
                        <path id="polyline58171" d="M0,0L2.5,0" style="fill:none;fill-rule:nonzero;stroke:rgb(204,204,204);stroke-width:0.7px;"/>
                    </g>
                    <g id="g58177" transform="matrix(-0.866025,-0.5,0.5,-0.866025,-12.9904,-7.5)">
                        <path id="polyline58175" d="M0,0L2.5,0" style="fill:none;fill-rule:nonzero;stroke:rgb(204,204,204);stroke-width:0.7px;"/>
                    </g>
                    <g id="g58181" transform="matrix(-0.5,-0.866025,0.866025,-0.5,-7.5,-12.9904)">
                        <path id="polyline58179" d="M0,0L2.5,0" style="fill:none;fill-rule:nonzero;stroke:rgb(204,204,204);stroke-width:0.7px;"/>
                    </g>
                    <g id="g58185" transform="matrix(-3.82857e-16,-1,1,-3.82857e-16,-2.66454e-15,-15)">
                        <path id="polyline58183" d="M0,0L2.5,0" style="fill:none;fill-rule:nonzero;stroke:rgb(204,204,204);stroke-width:0.7px;"/>
                    </g>
                    <g id="g58189" transform="matrix(0.5,-0.866025,0.866025,0.5,7.5,-12.9904)">
                        <path id="polyline58187" d="M0,0L2.5,0" style="fill:none;fill-rule:nonzero;stroke:rgb(204,204,204);stroke-width:0.7px;"/>
                    </g>
                    <g id="g58193" transform="matrix(0.866025,-0.5,0.5,0.866025,12.9904,-7.5)">
                        <path id="polyline58191" d="M0,0L2.5,0" style="fill:none;fill-rule:nonzero;stroke:rgb(204,204,204);stroke-width:0.7px;"/>
                    </g>
                    <g id="g58197" transform="matrix(1,0,0,1,15,0)">
                        <path id="polyline58195" d="M0,0L2.5,0" style="fill:none;fill-rule:nonzero;stroke:rgb(204,204,204);stroke-width:0.7px;"/>
                    </g>
                    <g id="g58201" transform="matrix(0.866025,0.5,-0.5,0.866025,12.9904,7.5)">
                        <path id="polyline58199" d="M0,0L2.5,0" style="fill:none;fill-rule:nonzero;stroke:rgb(204,204,204);stroke-width:0.7px;"/>
                    </g>
                    <g transform="matrix(1,0,0,1,5,17.7885)">
                        <g id="g58205">
                            <g id="text58203">
                                <path id="path58473" d="M2.607,0L1.667,0L1.667,-3.626L0.544,-3.278L0.544,-4.043L2.507,-4.746L2.607,-4.746L2.607,0Z" style="fill:rgb(238,238,238);fill-rule:nonzero;"/>
                                <path id="path58475" d="M7.34,-1.96C7.34,-1.304 7.205,-0.803 6.934,-0.456C6.662,-0.109 6.265,0.065 5.742,0.065C5.226,0.065 4.831,-0.105 4.557,-0.446C4.284,-0.787 4.144,-1.275 4.137,-1.911L4.137,-2.783C4.137,-3.445 4.274,-3.947 4.548,-4.29C4.823,-4.633 5.219,-4.805 5.736,-4.805C6.252,-4.805 6.647,-4.634 6.921,-4.294C7.194,-3.955 7.334,-3.468 7.34,-2.832L7.34,-1.96ZM6.4,-2.917C6.4,-3.309 6.345,-3.595 6.237,-3.773C6.131,-3.953 5.964,-4.043 5.736,-4.043C5.514,-4.043 5.35,-3.957 5.244,-3.786C5.14,-3.617 5.085,-3.351 5.078,-2.988L5.078,-1.836C5.078,-1.45 5.13,-1.162 5.234,-0.973C5.341,-0.787 5.51,-0.693 5.742,-0.693C5.972,-0.693 6.138,-0.783 6.24,-0.964C6.342,-1.144 6.395,-1.419 6.4,-1.79L6.4,-2.917Z" style="fill:rgb(238,238,238);fill-rule:nonzero;"/>
                            </g>
                        </g>
                    </g>
                </g>
            </g>
        </g>
        <g transform="matrix(1,0,0,1,64,65.5)">
            <g id="scale1" serif:id="scale">
                <g id="g582071" serif:id="g58207">
                    <g transform="matrix(1,0,0,1,-11.2,17.7885)">
                        <g id="g581651" serif:id="g58165">
                            <g id="text581631" serif:id="text58163">
                                <path id="path584611" serif:id="path58461" d="M3.512,-1.96C3.512,-1.304 3.377,-0.803 3.105,-0.456C2.834,-0.109 2.437,0.065 1.914,0.065C1.398,0.065 1.003,-0.105 0.729,-0.446C0.456,-0.787 0.316,-1.275 0.309,-1.911L0.309,-2.783C0.309,-3.445 0.446,-3.947 0.719,-4.29C0.995,-4.633 1.391,-4.805 1.908,-4.805C2.424,-4.805 2.819,-4.634 3.092,-4.294C3.366,-3.955 3.506,-3.468 3.512,-2.832L3.512,-1.96ZM2.572,-2.917C2.572,-3.309 2.517,-3.595 2.409,-3.773C2.303,-3.953 2.135,-4.043 1.908,-4.043C1.686,-4.043 1.522,-3.957 1.416,-3.786C1.312,-3.617 1.257,-3.351 1.25,-2.988L1.25,-1.836C1.25,-1.45 1.302,-1.162 1.406,-0.973C1.513,-0.787 1.682,-0.693 1.914,-0.693C2.144,-0.693 2.31,-0.783 2.412,-0.964C2.514,-1.144 2.567,-1.419 2.572,-1.79L2.572,-2.917Z" style="fill:rgb(238,238,238);fill-rule:nonzero;"/>
                            </g>
                        </g>
                    </g>
                    <g id="g581691" serif:id="g58169" transform="matrix(-0.866025,0.5,-0.5,-0.866025,-12.9904,7.5)">
                        <path id="polyline581671" serif:id="polyline58167" d="M0,0L2.5,0" style="fill:none;fill-rule:nonzero;stroke:rgb(204,204,204);stroke-width:0.7px;"/>
                    </g>
                    <g id="g581731" serif:id="g58173" transform="matrix(-1,-7.65714e-16,7.65714e-16,-1,-15,-5.74285e-15)">
                        <path id="polyline581711" serif:id="polyline58171" d="M0,0L2.5,0" style="fill:none;fill-rule:nonzero;stroke:rgb(204,204,204);stroke-width:0.7px;"/>
                    </g>
                    <g id="g581771" serif:id="g58177" transform="matrix(-0.866025,-0.5,0.5,-0.866025,-12.9904,-7.5)">
                        <path id="polyline581751" serif:id="polyline58175" d="M0,0L2.5,0" style="fill:none;fill-rule:nonzero;stroke:rgb(204,204,204);stroke-width:0.7px;"/>
                    </g>
                    <g id="g581811" serif:id="g58181" transform="matrix(-0.5,-0.866025,0.866025,-0.5,-7.5,-12.9904)">
                        <path id="polyline581791" serif:id="polyline58179" d="M0,0L2.5,0" style="fill:none;fill-rule:nonzero;stroke:rgb(204,204,204);stroke-width:0.7px;"/>
                    </g>
                    <g id="g581851" serif:id="g58185" transform="matrix(-3.82857e-16,-1,1,-3.82857e-16,-2.66454e-15,-15)">
                        <path id="polyline581831" serif:id="polyline58183" d="M0,0L2.5,0" style="fill:none;fill-rule:nonzero;stroke:rgb(204,204,204);stroke-width:0.7px;"/>
                    </g>
                    <g id="g581891" serif:id="g58189" transform="matrix(0.5,-0.866025,0.866025,0.5,7.5,-12.9904)">
                        <path id="polyline581871" serif:id="polyline58187" d="M0,0L2.5,0" style="fill:none;fill-rule:nonzero;stroke:rgb(204,204,204);stroke-width:0.7px;"/>
                    </g>
                    <g id="g581931" serif:id="g58193" transform="matrix(0.866025,-0.5,0.5,0.866025,12.9904,-7.5)">
                        <path id="polyline581911" serif:id="polyline58191" d="M0,0L2.5,0" style="fill:none;fill-rule:nonzero;stroke:rgb(204,204,204);stroke-width:0.7px;"/>
                    </g>
                    <g id="g581971" serif:id="g58197" transform="matrix(1,0,0,1,15,0)">
                        <path id="polyline581951" serif:id="polyline58195" d="M0,0L2.5,0" style="fill:none;fill-rule:nonzero;stroke:rgb(204,204,204);stroke-width:0.7px;"/>
                    </g>
                    <g id="g582011" serif:id="g58201" transform="matrix(0.866025,0.5,-0.5,0.866025,12.9904,7.5)">
                        <path id="polyline581991" serif:id="polyline58199" d="M0,0L2.5,0" style="fill:none;fill-rule:nonzero;stroke:rgb(204,204,204);stroke-width:0.7px;"/>
                    </g>
                    <g transform="matrix(1,0,0,1,5,17.7885)">
                        <g id="g582051" serif:id="g58205">
                            <g id="text582031" serif:id="text58203">
                                <path id="path584731" serif:id="path58473" d="M2.607,0L1.667,0L1.667,-3.626L0.544,-3.278L0.544,-4.043L2.507,-4.746L2.607,-4.746L2.607,0Z" style="fill:rgb(238,238,238);fill-rule:nonzero;"/>
                                <path id="path584751" serif:id="path58475" d="M7.34,-1.96C7.34,-1.304 7.205,-0.803 6.934,-0.456C6.662,-0.109 6.265,0.065 5.742,0.065C5.226,0.065 4.831,-0.105 4.557,-0.446C4.284,-0.787 4.144,-1.275 4.137,-1.911L4.137,-2.783C4.137,-3.445 4.274,-3.947 4.548,-4.29C4.823,-4.633 5.219,-4.805 5.736,-4.805C6.252,-4.805 6.647,-4.634 6.921,-4.294C7.194,-3.955 7.334,-3.468 7.34,-2.832L7.34,-1.96ZM6.4,-2.917C6.4,-3.309 6.345,-3.595 6.237,-3.773C6.131,-3.953 5.964,-4.043 5.736,-4.043C5.514,-4.043 5.35,-3.957 5.244,-3.786C5.14,-3.617 5.085,-3.351 5.078,-2.988L5.078,-1.836C5.078,-1.45 5.13,-1.162 5.234,-0.973C5.341,-0.787 5.51,-0.693 5.742,-0.693C5.972,-0.693 6.138,-0.783 6.24,-0.964C6.342,-1.144 6.395,-1.419 6.4,-1.79L6.4,-2.917Z" style="fill:rgb(238,238,238);fill-rule:nonzero;"/>
                            </g>
                        </g>
                    </g>
                </g>
            </g>
        </g>
        <g transform="matrix(1,0,0,1,64,209.5)">
            <g id="scale2" serif:id="scale">
                <g id="g582072" serif:id="g58207">
                    <g transform="matrix(1,0,0,1,-11.2,17.7885)">
                        <g id="g581652" serif:id="g58165">
                            <g id="text581632" serif:id="text58163">
                                <path id="path584612" serif:id="path58461" d="M3.512,-1.96C3.512,-1.304 3.377,-0.803 3.105,-0.456C2.834,-0.109 2.437,0.065 1.914,0.065C1.398,0.065 1.003,-0.105 0.729,-0.446C0.456,-0.787 0.316,-1.275 0.309,-1.911L0.309,-2.783C0.309,-3.445 0.446,-3.947 0.719,-4.29C0.995,-4.633 1.391,-4.805 1.908,-4.805C2.424,-4.805 2.819,-4.634 3.092,-4.294C3.366,-3.955 3.506,-3.468 3.512,-2.832L3.512,-1.96ZM2.572,-2.917C2.572,-3.309 2.517,-3.595 2.409,-3.773C2.303,-3.953 2.135,-4.043 1.908,-4.043C1.686,-4.043 1.522,-3.957 1.416,-3.786C1.312,-3.617 1.257,-3.351 1.25,-2.988L1.25,-1.836C1.25,-1.45 1.302,-1.162 1.406,-0.973C1.513,-0.787 1.682,-0.693 1.914,-0.693C2.144,-0.693 2.31,-0.783 2.412,-0.964C2.514,-1.144 2.567,-1.419 2.572,-1.79L2.572,-2.917Z" style="fill:rgb(238,238,238);fill-rule:nonzero;"/>
                            </g>
                        </g>
                    </g>
                    <g id="g581692" serif:id="g58169" transform="matrix(-0.866025,0.5,-0.5,-0.866025,-12.9904,7.5)">
                        <path id="polyline581672" serif:id="polyline58167" d="M0,0L2.5,0" style="fill:none;fill-rule:nonzero;stroke:rgb(204,204,204);stroke-width:0.7px;"/>
                    </g>
                    <g id="g581732" serif:id="g58173" transform="matrix(-1,-7.65714e-16,7.65714e-16,-1,-15,-5.74285e-15)">
                        <path id="polyline581712" serif:id="polyline58171" d="M0,0L2.5,0" style="fill:none;fill-rule:nonzero;stroke:rgb(204,204,204);stroke-width:0.7px;"/>
                    </g>
                    <g id="g581772" serif:id="g58177" transform="matrix(-0.866025,-0.5,0.5,-0.866025,-12.9904,-7.5)">
                        <path id="polyline581752" serif:id="polyline58175" d="M0,0L2.5,0" style="fill:none;fill-rule:nonzero;stroke:rgb(204,204,204);stroke-width:0.7px;"/>
                    </g>
                    <g id="g581812" serif:id="g58181" transform="matrix(-0.5,-0.866025,0.866025,-0.5,-7.5,-12.9904)">
                        <path id="polyline581792" serif:id="polyline58179" d="M0,0L2.5,0" style="fill:none;fill-rule:nonzero;stroke:rgb(204,204,204);stroke-width:0.7px;"/>
                    </g>
                    <g id="g581852" serif:id="g58185" transform="matrix(-3.82857e-16,-1,1,-3.82857e-16,-2.66454e-15,-15)">
                        <path id="polyline581832" serif:id="polyline58183" d="M0,0L2.5,0" style="fill:none;fill-rule:nonzero;stroke:rgb(204,204,204);stroke-width:0.7px;"/>
                    </g>
                    <g id="g581892" serif:id="g58189" transform="matrix(0.5,-0.866025,0.866025,0.5,7.5,-12.9904)">
                        <path id="polyline581872" serif:id="polyline58187" d="M0,0L2.5,0" style="fill:none;fill-rule:nonzero;stroke:rgb(204,204,204);stroke-width:0.7px;"/>
                    </g>
                    <g id="g581932" serif:id="g58193" transform="matrix(0.866025,-0.5,0.5,0.866025,12.9904,-7.5)">
                        <path id="polyline581912" serif:id="polyline58191" d="M0,0L2.5,0" style="fill:none;fill-rule:nonzero;stroke:rgb(204,204,204);stroke-width:0.7px;"/>
                    </g>
                    <g id="g581972" serif:id="g58197" transform="matrix(1,0,0,1,15,0)">
                        <path id="polyline581952" serif:id="polyline58195" d="M0,0L2.5,0" style="fill:none;fill-rule:nonzero;stroke:rgb(204,204,204);stroke-width:0.7px;"/>
                    </g>
                    <g id="g582012" serif:id="g58201" transform="matrix(0.866025,0.5,-0.5,0.866025,12.9904,7.5)">
                        <path id="polyline581992" serif:id="polyline58199" d="M0,0L2.5,0" style="fill:none;fill-rule:nonzero;stroke:rgb(204,204,204);stroke-width:0.7px;"/>
                    </g>
                    <g transform="matrix(1,0,0,1,5,17.7885)">
                        <g id="g582052" serif:id="g58205">
                            <g id="text582032" serif:id="text58203">
                                <path id="path584732" serif:id="path58473" d="M2.607,0L1.667,0L1.667,-3.626L0.544,-3.278L0.544,-4.043L2.507,-4.746L2.607,-4.746L2.607,0Z" style="fill:rgb(238,238,238);fill-rule:nonzero;"/>
                                <path id="path584752" serif:id="path58475" d="M7.34,-1.96C7.34,-1.304 7.205,-0.803 6.934,-0.456C6.662,-0.109 6.265,0.065 5.742,0.065C5.226,0.065 4.831,-0.105 4.557,-0.446C4.284,-0.787 4.144,-1.275 4.137,-1.911L4.137,-2.783C4.137,-3.445 4.274,-3.947 4.548,-4.29C4.823,-4.633 5.219,-4.805 5.736,-4.805C6.252,-4.805 6.647,-4.634 6.921,-4.294C7.194,-3.955 7.334,-3.468 7.34,-2.832L7.34,-1.96ZM6.4,-2.917C6.4,-3.309 6.345,-3.595 6.237,-3.773C6.131,-3.953 5.964,-4.043 5.736,-4.043C5.514,-4.043 5.35,-3.957 5.244,-3.786C5.14,-3.617 5.085,-3.351 5.078,-2.988L5.078,-1.836C5.078,-1.45 5.13,-1.162 5.234,-0.973C5.341,-0.787 5.51,-0.693 5.742,-0.693C5.972,-0.693 6.138,-0.783 6.24,-0.964C6.342,-1.144 6.395,-1.419 6.4,-1.79L6.4,-2.917Z" style="fill:rgb(238,238,238);fill-rule:nonzero;"/>
                            </g>
                        </g>
                    </g>
                </g>
            </g>
        </g>
        <g transform="matrix(1,0,0,1,64,113.203)">
            <g id="scale3" serif:id="scale">
                <g id="g582073" serif:id="g58207">
                    <g transform="matrix(1,0,0,1,-11.2,17.7885)">
                        <g id="g581653" serif:id="g58165">
                            <g id="text581633" serif:id="text58163">
                                <path id="path584613" serif:id="path58461" d="M3.512,-1.96C3.512,-1.304 3.377,-0.803 3.105,-0.456C2.834,-0.109 2.437,0.065 1.914,0.065C1.398,0.065 1.003,-0.105 0.729,-0.446C0.456,-0.787 0.316,-1.275 0.309,-1.911L0.309,-2.783C0.309,-3.445 0.446,-3.947 0.719,-4.29C0.995,-4.633 1.391,-4.805 1.908,-4.805C2.424,-4.805 2.819,-4.634 3.092,-4.294C3.366,-3.955 3.506,-3.468 3.512,-2.832L3.512,-1.96ZM2.572,-2.917C2.572,-3.309 2.517,-3.595 2.409,-3.773C2.303,-3.953 2.135,-4.043 1.908,-4.043C1.686,-4.043 1.522,-3.957 1.416,-3.786C1.312,-3.617 1.257,-3.351 1.25,-2.988L1.25,-1.836C1.25,-1.45 1.302,-1.162 1.406,-0.973C1.513,-0.787 1.682,-0.693 1.914,-0.693C2.144,-0.693 2.31,-0.783 2.412,-0.964C2.514,-1.144 2.567,-1.419 2.572,-1.79L2.572,-2.917Z" style="fill:rgb(238,238,238);fill-rule:nonzero;"/>
                            </g>
                        </g>
                    </g>
                    <g id="g581693" serif:id="g58169" transform="matrix(-0.866025,0.5,-0.5,-0.866025,-12.9904,7.5)">
                        <path id="polyline581673" serif:id="polyline58167" d="M0,0L2.5,0" style="fill:none;fill-rule:nonzero;stroke:rgb(204,204,204);stroke-width:0.7px;"/>
                    </g>
                    <g id="g581733" serif:id="g58173" transform="matrix(-1,-7.65714e-16,7.65714e-16,-1,-15,-5.74285e-15)">
                        <path id="polyline581713" serif:id="polyline58171" d="M0,0L2.5,0" style="fill:none;fill-rule:nonzero;stroke:rgb(204,204,204);stroke-width:0.7px;"/>
                    </g>
                    <g id="g581773" serif:id="g58177" transform="matrix(-0.866025,-0.5,0.5,-0.866025,-12.9904,-7.5)">
                        <path id="polyline581753" serif:id="polyline58175" d="M0,0L2.5,0" style="fill:none;fill-rule:nonzero;stroke:rgb(204,204,204);stroke-width:0.7px;"/>
                    </g>
                    <g id="g581813" serif:id="g58181" transform="matrix(-0.5,-0.866025,0.866025,-0.5,-7.5,-12.9904)">
                        <path id="polyline581793" serif:id="polyline58179" d="M0,0L2.5,0" style="fill:none;fill-rule:nonzero;stroke:rgb(204,204,204);stroke-width:0.7px;"/>
                    </g>
                    <g id="g581853" serif:id="g58185" transform="matrix(-3.82857e-16,-1,1,-3.82857e-16,-2.66454e-15,-15)">
                        <path id="polyline581833" serif:id="polyline58183" d="M0,0L2.5,0" style="fill:none;fill-rule:nonzero;stroke:rgb(204,204,204);stroke-width:0.7px;"/>
                    </g>
                    <g id="g581893" serif:id="g58189" transform="matrix(0.5,-0.866025,0.866025,0.5,7.5,-12.9904)">
                        <path id="polyline581873" serif:id="polyline58187" d="M0,0L2.5,0" style="fill:none;fill-rule:nonzero;stroke:rgb(204,204,204);stroke-width:0.7px;"/>
                    </g>
                    <g id="g581933" serif:id="g58193" transform="matrix(0.866025,-0.5,0.5,0.866025,12.9904,-7.5)">
                        <path id="polyline581913" serif:id="polyline58191" d="M0,0L2.5,0" style="fill:none;fill-rule:nonzero;stroke:rgb(204,204,204);stroke-width:0.7px;"/>
                    </g>
                    <g id="g581973" serif:id="g58197" transform="matrix(1,0,0,1,15,0)">
                        <path id="polyline581953" serif:id="polyline58195" d="M0,0L2.5,0" style="fill:none;fill-rule:nonzero;stroke:rgb(204,204,204);stroke-width:0.7px;"/>
                    </g>
                    <g id="g582013" serif:id="g58201" transform="matrix(0.866025,0.5,-0.5,0.866025,12.9904,7.5)">
                        <path id="polyline581993" serif:id="polyline58199" d="M0,0L2.5,0" style="fill:none;fill-rule:nonzero;stroke:rgb(204,204,204);stroke-width:0.7px;"/>
                    </g>
                    <g transform="matrix(1,0,0,1,5,17.7885)">
                        <g id="g582053" serif:id="g58205">
                            <g id="text582033" serif:id="text58203">
                                <path id="path584733" serif:id="path58473" d="M2.607,0L1.667,0L1.667,-3.626L0.544,-3.278L0.544,-4.043L2.507,-4.746L2.607,-4.746L2.607,0Z" style="fill:rgb(238,238,238);fill-rule:nonzero;"/>
                                <path id="path584753" serif:id="path58475" d="M7.34,-1.96C7.34,-1.304 7.205,-0.803 6.934,-0.456C6.662,-0.109 6.265,0.065 5.742,0.065C5.226,0.065 4.831,-0.105 4.557,-0.446C4.284,-0.787 4.144,-1.275 4.137,-1.911L4.137,-2.783C4.137,-3.445 4.274,-3.947 4.548,-4.29C4.823,-4.633 5.219,-4.805 5.736,-4.805C6.252,-4.805 6.647,-4.634 6.921,-4.294C7.194,-3.955 7.334,-3.468 7.34,-2.832L7.34,-1.96ZM6.4,-2.917C6.4,-3.309 6.345,-3.595 6.237,-3.773C6.131,-3.953 5.964,-4.043 5.736,-4.043C5.514,-4.043 5.35,-3.957 5.244,-3.786C5.14,-3.617 5.085,-3.351 5.078,-2.988L5.078,-1.836C5.078,-1.45 5.13,-1.162 5.234,-0.973C5.341,-0.787 5.51,-0.693 5.742,-0.693C5.972,-0.693 6.138,-0.783 6.24,-0.964C6.342,-1.144 6.395,-1.419 6.4,-1.79L6.4,-2.917Z" style="fill:rgb(238,238,238);fill-rule:nonzero;"/>
                            </g>
                        </g>
                    </g>
                </g>
            </g>
        </g>
    </g>
    <g id="Bogaudio-Logo" serif:id="Bogaudio Logo" transform="matrix(1.19801,0,0,1.19801,451.688,340.91)">
        <g id="path58" transform="matrix(1,0,0,1,0,2.38835)">
            <path d="M-373.581,25.5C-373.718,25.5 -373.833,25.453 -373.927,25.36C-374.02,25.267 -374.067,25.152 -374.067,25.015L-374.067,18.696C-374.067,18.553 -374.02,18.438 -373.927,18.351C-373.833,18.257 -373.718,18.211 -373.581,18.211L-371.351,18.211C-370.934,18.211 -370.564,18.295 -370.24,18.463C-369.916,18.624 -369.664,18.855 -369.484,19.153C-369.297,19.446 -369.204,19.779 -369.204,20.152C-369.204,20.457 -369.288,20.731 -369.456,20.973C-369.618,21.216 -369.842,21.412 -370.128,21.561C-369.705,21.661 -369.372,21.86 -369.129,22.159C-368.887,22.457 -368.765,22.837 -368.765,23.297C-368.765,23.72 -368.868,24.1 -369.073,24.436C-369.272,24.772 -369.556,25.033 -369.923,25.22C-370.284,25.407 -370.694,25.5 -371.155,25.5L-373.581,25.5ZM-371.351,21.207C-370.984,21.207 -370.691,21.116 -370.473,20.936C-370.249,20.756 -370.137,20.494 -370.137,20.152C-370.137,19.81 -370.249,19.552 -370.473,19.377C-370.691,19.197 -370.984,19.107 -371.351,19.107L-373.096,19.107L-373.096,21.207L-371.351,21.207ZM-371.155,24.604C-370.719,24.604 -370.368,24.492 -370.1,24.268C-369.832,24.038 -369.699,23.714 -369.699,23.297C-369.699,22.912 -369.832,22.616 -370.1,22.411C-370.361,22.205 -370.713,22.103 -371.155,22.103L-373.096,22.103L-373.096,24.604L-371.155,24.604Z" style="fill:white;fill-rule:nonzero;"/>
        </g>
        <g id="path60" transform="matrix(1,0,0,1,0,2.38835)">
            <path d="M-362.135,25.593C-362.857,25.593 -363.501,25.435 -364.067,25.117C-364.627,24.8 -365.062,24.358 -365.374,23.792C-365.685,23.22 -365.84,22.572 -365.84,21.851C-365.84,21.129 -365.685,20.485 -365.374,19.919C-365.062,19.352 -364.627,18.911 -364.067,18.593C-363.501,18.276 -362.857,18.117 -362.135,18.117C-361.419,18.117 -360.782,18.276 -360.222,18.593C-359.655,18.911 -359.217,19.352 -358.906,19.919C-358.588,20.485 -358.43,21.129 -358.43,21.851C-358.43,22.572 -358.588,23.22 -358.906,23.792C-359.217,24.358 -359.652,24.8 -360.212,25.117C-360.772,25.435 -361.413,25.593 -362.135,25.593ZM-362.135,24.716C-361.606,24.716 -361.13,24.592 -360.707,24.343C-360.284,24.088 -359.954,23.742 -359.718,23.307C-359.481,22.871 -359.363,22.386 -359.363,21.851C-359.363,21.316 -359.481,20.83 -359.718,20.395C-359.954,19.959 -360.284,19.617 -360.707,19.368C-361.124,19.119 -361.6,18.995 -362.135,18.995C-362.67,18.995 -363.149,19.119 -363.572,19.368C-363.989,19.617 -364.316,19.959 -364.552,20.395C-364.789,20.83 -364.907,21.316 -364.907,21.851C-364.907,22.386 -364.789,22.871 -364.552,23.307C-364.316,23.742 -363.986,24.088 -363.563,24.343C-363.14,24.592 -362.664,24.716 -362.135,24.716Z" style="fill:white;fill-rule:nonzero;"/>
        </g>
        <g id="path62" transform="matrix(1,0,0,1,0,2.38835)">
            <path d="M-349.856,21.72C-349.719,21.72 -349.607,21.767 -349.52,21.86C-349.426,21.947 -349.38,22.062 -349.38,22.205L-349.38,24.436C-349.38,24.585 -349.429,24.7 -349.529,24.781C-350.182,25.323 -350.945,25.593 -351.816,25.593C-352.481,25.593 -353.091,25.428 -353.645,25.099C-354.193,24.769 -354.625,24.318 -354.942,23.745C-355.26,23.173 -355.418,22.541 -355.418,21.851C-355.418,21.166 -355.26,20.541 -354.942,19.975C-354.625,19.402 -354.193,18.951 -353.645,18.621C-353.091,18.285 -352.481,18.117 -351.816,18.117C-351.343,18.117 -350.935,18.18 -350.593,18.304C-350.245,18.428 -349.893,18.634 -349.538,18.92C-349.464,18.976 -349.414,19.035 -349.389,19.097C-349.364,19.153 -349.352,19.222 -349.352,19.303C-349.352,19.427 -349.398,19.53 -349.492,19.611C-349.579,19.692 -349.685,19.732 -349.809,19.732C-349.921,19.732 -350.027,19.692 -350.126,19.611C-350.381,19.393 -350.63,19.237 -350.873,19.144C-351.116,19.044 -351.43,18.995 -351.816,18.995C-352.301,18.995 -352.749,19.122 -353.16,19.377C-353.564,19.632 -353.888,19.981 -354.13,20.423C-354.367,20.858 -354.485,21.334 -354.485,21.851C-354.485,22.373 -354.367,22.852 -354.13,23.288C-353.888,23.724 -353.564,24.069 -353.16,24.324C-352.749,24.579 -352.301,24.707 -351.816,24.707C-351.293,24.707 -350.792,24.551 -350.313,24.24L-350.313,22.579L-351.601,22.579C-351.744,22.579 -351.862,22.538 -351.956,22.457C-352.043,22.376 -352.086,22.274 -352.086,22.149C-352.086,22.025 -352.043,21.922 -351.956,21.841C-351.862,21.76 -351.744,21.72 -351.601,21.72L-349.856,21.72Z" style="fill:white;fill-rule:nonzero;"/>
        </g>
        <g id="path64" transform="matrix(1,0,0,1,0,2.38835)">
            <path d="M-340.376,24.819C-340.345,24.9 -340.33,24.968 -340.33,25.024C-340.33,25.155 -340.376,25.267 -340.47,25.36C-340.563,25.453 -340.678,25.5 -340.815,25.5C-340.908,25.5 -340.999,25.475 -341.086,25.425C-341.167,25.369 -341.226,25.295 -341.263,25.201L-341.786,23.895L-345.136,23.895L-345.668,25.201C-345.712,25.295 -345.774,25.369 -345.855,25.425C-345.936,25.475 -346.023,25.5 -346.116,25.5C-346.253,25.5 -346.368,25.453 -346.462,25.36C-346.549,25.26 -346.592,25.145 -346.592,25.015C-346.592,24.952 -346.577,24.881 -346.546,24.8L-343.923,18.537C-343.83,18.32 -343.677,18.211 -343.466,18.211C-343.242,18.211 -343.089,18.32 -343.008,18.537L-340.376,24.819ZM-342.112,23.092L-343.447,19.769L-344.81,23.092L-342.112,23.092Z" style="fill:white;fill-rule:nonzero;"/>
        </g>
        <g id="path66" transform="matrix(1,0,0,1,0,2.38835)">
            <path d="M-334.486,25.649C-335.077,25.649 -335.606,25.54 -336.073,25.323C-336.533,25.099 -336.894,24.791 -337.155,24.399C-337.41,24.007 -337.538,23.559 -337.538,23.055L-337.538,18.696C-337.538,18.553 -337.491,18.438 -337.398,18.351C-337.305,18.257 -337.19,18.211 -337.053,18.211C-336.91,18.211 -336.794,18.257 -336.707,18.351C-336.614,18.438 -336.567,18.553 -336.567,18.696L-336.567,23.055C-336.567,23.384 -336.48,23.68 -336.306,23.941C-336.126,24.203 -335.88,24.408 -335.569,24.557C-335.251,24.7 -334.89,24.772 -334.486,24.772C-334.1,24.772 -333.755,24.7 -333.45,24.557C-333.145,24.408 -332.909,24.203 -332.741,23.941C-332.566,23.68 -332.479,23.384 -332.479,23.055L-332.479,18.696C-332.479,18.553 -332.433,18.438 -332.339,18.351C-332.246,18.257 -332.131,18.211 -331.994,18.211C-331.857,18.211 -331.745,18.257 -331.658,18.351C-331.565,18.438 -331.518,18.553 -331.518,18.696L-331.518,23.055C-331.518,23.552 -331.646,24 -331.901,24.399C-332.15,24.791 -332.501,25.099 -332.955,25.323C-333.403,25.54 -333.914,25.649 -334.486,25.649Z" style="fill:white;fill-rule:nonzero;"/>
        </g>
        <g id="path68" transform="matrix(1,0,0,1,0,2.38835)">
            <path d="M-327.159,25.5C-327.296,25.5 -327.411,25.453 -327.505,25.36C-327.598,25.267 -327.645,25.152 -327.645,25.015L-327.645,18.696C-327.645,18.553 -327.598,18.438 -327.505,18.351C-327.411,18.257 -327.296,18.211 -327.159,18.211L-325.47,18.211C-324.767,18.211 -324.142,18.366 -323.594,18.677C-323.047,18.988 -322.62,19.421 -322.315,19.975C-322.011,20.522 -321.858,21.148 -321.858,21.851C-321.858,22.554 -322.011,23.182 -322.315,23.736C-322.62,24.29 -323.047,24.722 -323.594,25.033C-324.142,25.344 -324.767,25.5 -325.47,25.5L-327.159,25.5ZM-325.47,24.641C-324.954,24.641 -324.493,24.523 -324.089,24.287C-323.678,24.05 -323.361,23.72 -323.137,23.297C-322.907,22.868 -322.791,22.386 -322.791,21.851C-322.791,21.316 -322.907,20.836 -323.137,20.413C-323.361,19.99 -323.678,19.66 -324.089,19.424C-324.493,19.188 -324.954,19.069 -325.47,19.069L-326.674,19.069L-326.674,24.641L-325.47,24.641Z" style="fill:white;fill-rule:nonzero;"/>
        </g>
        <g id="path70" transform="matrix(1,0,0,1,0,2.38835)">
            <path d="M-317.85,25.5C-317.986,25.5 -318.102,25.453 -318.195,25.36C-318.288,25.267 -318.335,25.152 -318.335,25.015L-318.335,18.696C-318.335,18.553 -318.288,18.438 -318.195,18.351C-318.102,18.257 -317.986,18.211 -317.85,18.211C-317.706,18.211 -317.591,18.257 -317.504,18.351C-317.411,18.438 -317.364,18.553 -317.364,18.696L-317.364,25.015C-317.364,25.152 -317.411,25.267 -317.504,25.36C-317.591,25.453 -317.706,25.5 -317.85,25.5Z" style="fill:white;fill-rule:nonzero;"/>
        </g>
        <g id="path72" transform="matrix(1,0,0,1,0,2.38835)">
            <path d="M-310.122,25.593C-310.844,25.593 -311.488,25.435 -312.054,25.117C-312.614,24.8 -313.049,24.358 -313.36,23.792C-313.672,23.22 -313.827,22.572 -313.827,21.851C-313.827,21.129 -313.672,20.485 -313.36,19.919C-313.049,19.352 -312.614,18.911 -312.054,18.593C-311.488,18.276 -310.844,18.117 -310.122,18.117C-309.406,18.117 -308.768,18.276 -308.208,18.593C-307.642,18.911 -307.204,19.352 -306.892,19.919C-306.575,20.485 -306.416,21.129 -306.416,21.851C-306.416,22.572 -306.575,23.22 -306.892,23.792C-307.204,24.358 -307.639,24.8 -308.199,25.117C-308.759,25.435 -309.4,25.593 -310.122,25.593ZM-310.122,24.716C-309.593,24.716 -309.117,24.592 -308.694,24.343C-308.271,24.088 -307.941,23.742 -307.704,23.307C-307.468,22.871 -307.35,22.386 -307.35,21.851C-307.35,21.316 -307.468,20.83 -307.704,20.395C-307.941,19.959 -308.271,19.617 -308.694,19.368C-309.111,19.119 -309.587,18.995 -310.122,18.995C-310.657,18.995 -311.136,19.119 -311.559,19.368C-311.976,19.617 -312.303,19.959 -312.539,20.395C-312.776,20.83 -312.894,21.316 -312.894,21.851C-312.894,22.386 -312.776,22.871 -312.539,23.307C-312.303,23.742 -311.973,24.088 -311.55,24.343C-311.127,24.592 -310.651,24.716 -310.122,24.716Z" style="fill:white;fill-rule:nonzero;"/>
        </g>
    </g>
    <g transform="matrix(1.12362,0,-1.46018e-32,1.28719,-70.95,-203.807)">
        <g transform="matrix(12,0,0,12,68.9333,170.174)">
            <path d="M0.342,-0.586L0.569,-0.586L0.893,-0L0.69,-0L0.635,-0.101L0.273,-0.101L0.221,-0L0.018,-0L0.342,-0.586ZM0.345,-0.237L0.563,-0.237L0.456,-0.438L0.345,-0.237Z" style="fill:white;fill-rule:nonzero;"/>
        </g>
        <g transform="matrix(12,0,0,12,80.0486,170.174)">
            <path d="M0.339,-0.586L0.677,-0.149L0.677,-0.586L0.856,-0.586L0.856,-0L0.572,-0L0.234,-0.438L0.234,-0L0.055,-0L0.055,-0.586L0.339,-0.586Z" style="fill:white;fill-rule:nonzero;"/>
        </g>
        <g transform="matrix(12,0,0,12,91.1638,170.174)">
            <path d="M0.342,-0.586L0.569,-0.586L0.893,-0L0.69,-0L0.635,-0.101L0.273,-0.101L0.221,-0L0.018,-0L0.342,-0.586ZM0.345,-0.237L0.563,-0.237L0.456,-0.438L0.345,-0.237Z" style="fill:white;fill-rule:nonzero;"/>
        </g>
        <g transform="matrix(12,0,0,12,102.279,170.174)">
            <path d="M0.245,-0.586L0.245,-0.151L0.638,-0.151L0.638,-0L0.066,-0L0.066,-0.586L0.245,-0.586Z" style="fill:white;fill-rule:nonzero;"/>
        </g>
        <g transform="matrix(12,0,0,12,110.283,170.174)">
            <path d="M0.227,-0.586L0.419,-0.351L0.612,-0.586L0.841,-0.586L0.508,-0.205L0.508,-0L0.329,-0L0.329,-0.205L-0.003,-0.586L0.227,-0.586Z" style="fill:white;fill-rule:nonzero;"/>
        </g>
        <g transform="matrix(12,0,0,12,120.508,170.174)">
            <path d="M0.472,-0.45L0.044,-0.45L0.044,-0.586L0.726,-0.586L0.726,-0.453L0.293,-0.137L0.734,-0.137L0.734,-0L0.031,-0L0.031,-0.137L0.472,-0.45Z" style="fill:white;fill-rule:nonzero;"/>
        </g>
        <g transform="matrix(12,0,0,12,129.842,170.174)">
            <path d="M0.061,-0.586L0.706,-0.586L0.706,-0.45L0.24,-0.45L0.24,-0.37L0.68,-0.37L0.68,-0.243L0.24,-0.243L0.24,-0.137L0.711,-0.137L0.711,-0L0.061,-0L0.061,-0.586Z" style="fill:white;fill-rule:nonzero;"/>
        </g>
        <g transform="matrix(12,0,0,12,139.176,170.174)">
            <path d="M0.578,-0.586C0.602,-0.586 0.626,-0.585 0.65,-0.583C0.705,-0.577 0.742,-0.557 0.762,-0.523C0.77,-0.509 0.776,-0.495 0.779,-0.482C0.785,-0.454 0.788,-0.425 0.788,-0.395C0.788,-0.346 0.781,-0.31 0.768,-0.285C0.755,-0.261 0.724,-0.242 0.676,-0.228C0.725,-0.214 0.756,-0.197 0.768,-0.177C0.779,-0.158 0.785,-0.123 0.785,-0.072L0.785,-0L0.606,-0L0.605,-0.054C0.605,-0.091 0.601,-0.115 0.592,-0.126C0.582,-0.139 0.559,-0.146 0.522,-0.146L0.239,-0.146L0.239,-0L0.06,-0L0.06,-0.586L0.578,-0.586ZM0.239,-0.435L0.239,-0.297L0.489,-0.297C0.506,-0.297 0.525,-0.297 0.545,-0.298C0.56,-0.298 0.573,-0.3 0.583,-0.305C0.6,-0.313 0.609,-0.334 0.609,-0.368C0.61,-0.392 0.604,-0.409 0.591,-0.42C0.582,-0.429 0.564,-0.433 0.537,-0.434L0.484,-0.435L0.239,-0.435Z" style="fill:white;fill-rule:nonzero;"/>
        </g>
        <g transform="matrix(12,0,0,12,149.4,170.174)">
            <path d="M0.463,-0.596L0.597,-0.596L0.202,0.008L0.07,0.008L0.463,-0.596Z" style="fill:white;fill-rule:nonzero;"/>
        </g>
        <g transform="matrix(12,0,0,12,157.404,170.174)">
            <path d="M0.048,-0.369C0.048,-0.414 0.048,-0.44 0.048,-0.447C0.051,-0.51 0.079,-0.552 0.133,-0.573C0.165,-0.585 0.219,-0.592 0.294,-0.594C0.332,-0.595 0.359,-0.596 0.377,-0.596C0.394,-0.596 0.426,-0.595 0.473,-0.594C0.513,-0.593 0.547,-0.592 0.574,-0.589C0.621,-0.585 0.658,-0.573 0.685,-0.555C0.711,-0.537 0.726,-0.502 0.729,-0.451C0.73,-0.432 0.731,-0.413 0.731,-0.394C0.731,-0.369 0.729,-0.347 0.727,-0.329C0.722,-0.302 0.711,-0.28 0.692,-0.263C0.673,-0.244 0.651,-0.232 0.627,-0.227C0.608,-0.222 0.545,-0.216 0.439,-0.209L0.303,-0.2C0.278,-0.198 0.259,-0.195 0.244,-0.192C0.224,-0.188 0.214,-0.174 0.212,-0.15L0.21,-0.128L0.735,-0.128L0.735,-0L0.042,-0L0.042,-0.105C0.042,-0.127 0.042,-0.149 0.043,-0.171C0.045,-0.212 0.051,-0.241 0.062,-0.258C0.078,-0.284 0.102,-0.301 0.133,-0.312C0.158,-0.32 0.218,-0.327 0.313,-0.333L0.461,-0.342C0.494,-0.344 0.519,-0.347 0.533,-0.352C0.553,-0.358 0.563,-0.375 0.563,-0.401C0.564,-0.435 0.552,-0.455 0.527,-0.461C0.508,-0.465 0.483,-0.467 0.451,-0.468L0.412,-0.468L0.333,-0.466C0.297,-0.465 0.273,-0.462 0.259,-0.458C0.236,-0.451 0.223,-0.433 0.22,-0.402L0.216,-0.369L0.048,-0.369Z" style="fill:white;fill-rule:nonzero;"/>
        </g>
    </g>
    <g transform="matrix(0.25,0,0,2.92308,118,-210.462)">
        <rect x="128" y="72" width="4" height="130" style="fill:rgb(235,235,235);"/>
    </g>
</svg>
