<?xml version="1.0" encoding="UTF-8" standalone="no"?>
<!DOCTYPE svg PUBLIC "-//W3C//DTD SVG 1.1//EN" "http://www.w3.org/Graphics/SVG/1.1/DTD/svg11.dtd">
<svg width="100%" height="100%" viewBox="0 0 900 380" version="1.1" xmlns="http://www.w3.org/2000/svg" xmlns:xlink="http://www.w3.org/1999/xlink" xml:space="preserve" xmlns:serif="http://www.serif.com/" style="fill-rule:evenodd;clip-rule:evenodd;stroke-linejoin:round;stroke-miterlimit:2;">
    <g id="BG">
        <rect x="190" y="0" width="860.002" height="380" style="fill:rgb(9,22,17);"/>
        <rect x="0" y="0" width="190" height="380" style="fill:rgb(24,24,24);"/>
    </g>
    <path id="Title" d="M12.282,6.281L15.529,6.281C16.585,6.281 17.378,6.559 17.906,7.116C18.434,7.673 18.698,8.489 18.698,9.565L18.698,16.285C18.698,17.36 18.434,18.177 17.906,18.734C17.378,19.29 16.585,19.569 15.529,19.569L12.282,19.569L12.282,6.281ZM15.49,17.671C15.838,17.671 16.105,17.569 16.292,17.367C16.479,17.164 16.572,16.835 16.572,16.38L16.572,9.47C16.572,9.014 16.479,8.685 16.292,8.483C16.105,8.28 15.838,8.179 15.49,8.179L14.408,8.179L14.408,17.671L15.49,17.671Z" style="fill:white;fill-rule:nonzero;stroke:white;stroke-width:0.45px;"/>
    <path d="M22.892,19.759C21.861,19.759 21.082,19.471 20.554,18.895C20.025,18.319 19.761,17.493 19.761,16.418L19.761,15.658L21.771,15.658L21.771,16.57C21.771,17.43 22.138,17.86 22.873,17.86C23.234,17.86 23.507,17.756 23.694,17.547C23.881,17.338 23.974,17 23.974,16.532C23.974,15.975 23.846,15.484 23.588,15.06C23.33,14.636 22.854,14.127 22.158,13.532C21.282,12.773 20.67,12.086 20.322,11.473C19.974,10.859 19.8,10.166 19.8,9.394C19.8,8.344 20.071,7.531 20.612,6.955C21.153,6.379 21.939,6.091 22.969,6.091C23.987,6.091 24.757,6.379 25.279,6.955C25.801,7.531 26.062,8.356 26.062,9.432L26.062,9.983L24.052,9.983L24.052,9.299C24.052,8.844 23.962,8.511 23.781,8.303C23.601,8.094 23.337,7.989 22.989,7.989C22.28,7.989 21.926,8.413 21.926,9.261C21.926,9.742 22.058,10.191 22.322,10.609C22.586,11.027 23.066,11.533 23.762,12.128C24.651,12.887 25.263,13.577 25.598,14.197C25.933,14.817 26.1,15.544 26.1,16.38C26.1,17.468 25.827,18.303 25.279,18.885C24.731,19.468 23.936,19.759 22.892,19.759Z" style="fill:white;fill-rule:nonzero;stroke:white;stroke-width:0.45px;"/>
    <path d="M28.903,6.281L31.782,6.281L33.985,19.569L31.86,19.569L31.473,16.93L31.473,16.968L29.057,16.968L28.671,19.569L26.699,19.569L28.903,6.281ZM31.222,15.165L30.275,8.597L30.236,8.597L29.308,15.165L31.222,15.165Z" style="fill:white;fill-rule:nonzero;stroke:white;stroke-width:0.45px;"/>
    <path d="M41.078,9.432L38.856,9.432L38.856,7.951C39.461,7.951 39.948,7.901 40.315,7.8C40.682,7.698 40.975,7.531 41.194,7.297C41.413,7.062 41.606,6.724 41.774,6.281L43.204,6.281L43.204,19.569L41.078,19.569L41.078,9.432Z" style="fill:white;fill-rule:nonzero;stroke:white;stroke-width:0.45px;"/>
    <g id="LOGO">
        <g id="Logo">
            <g>
                <g>
                    <path d="M5.631,373.582L9.324,373.582L9.324,374.961L4.253,374.961L4.253,368.502L5.631,368.502L5.631,373.582Z" style="fill:white;fill-rule:nonzero;"/>
                </g>
                <g>
                    <rect x="10.258" y="368.502" width="1.379" height="6.459" style="fill:white;"/>
                </g>
                <g>
                    <path d="M13.953,371.307L13.953,374.961L12.575,374.961L12.575,367.897L16.72,372.166L16.72,368.502L18.108,368.502L18.108,375.566L13.953,371.307Z" style="fill:white;fill-rule:nonzero;"/>
                </g>
                <g>
                    <path d="M24.575,372.657C24.575,374.196 23.81,374.961 22.271,374.961L19.041,374.961L19.041,368.502L22.271,368.502C23.81,368.502 24.575,369.276 24.575,370.815L24.575,372.657ZM22.271,373.582C22.885,373.582 23.187,373.271 23.187,372.657L23.187,370.815C23.187,370.192 22.885,369.89 22.271,369.89L20.42,369.89L20.42,373.582L22.271,373.582Z" style="fill:white;fill-rule:nonzero;"/>
                </g>
                <g>
                    <path d="M30.579,368.502L30.579,369.89L26.886,369.89L26.886,370.815L30.116,370.815L30.116,372.194L26.886,372.194L26.886,373.582L30.579,373.582L30.579,374.961L25.508,374.961L25.508,368.502L30.579,368.502Z" style="fill:white;fill-rule:nonzero;"/>
                </g>
                <g>
                    <path d="M32.892,371.307L32.892,374.961L31.513,374.961L31.513,367.897L35.659,372.166L35.659,368.502L37.047,368.502L37.047,375.566L32.892,371.307Z" style="fill:white;fill-rule:nonzero;"/>
                </g>
                <g>
                    <path d="M41.209,372.194L39.359,372.194L39.359,373.582L41.209,373.582C41.823,373.582 42.126,373.422 42.126,373.12L42.126,372.657C42.126,372.345 41.823,372.194 41.209,372.194ZM41.209,370.815C41.823,370.815 42.126,370.655 42.126,370.353C42.126,370.041 41.823,369.89 41.209,369.89L39.359,369.89L39.359,370.815L41.209,370.815ZM43.164,371.505C43.4,371.798 43.514,372.175 43.514,372.657L43.514,373.12C43.514,374.347 42.749,374.961 41.209,374.961L37.98,374.961L37.98,368.502L41.209,368.502C42.749,368.502 43.514,369.125 43.514,370.353C43.514,370.825 43.4,371.212 43.164,371.505Z" style="fill:white;fill-rule:nonzero;"/>
                </g>
                <g>
                    <path d="M49.518,368.502L49.518,369.89L45.825,369.89L45.825,370.815L49.055,370.815L49.055,372.194L45.825,372.194L45.825,373.582L49.518,373.582L49.518,374.961L44.446,374.961L44.446,368.502L49.518,368.502Z" style="fill:white;fill-rule:nonzero;"/>
                </g>
                <g>
                    <path d="M55.986,370.815C55.986,372.156 55.391,372.912 54.21,373.082L56.099,374.961L54.144,374.961L51.831,372.657L51.831,374.961L50.452,374.961L50.452,368.502L53.682,368.502C55.221,368.502 55.986,369.276 55.986,370.815ZM53.682,371.731C54.295,371.731 54.598,371.429 54.598,370.815C54.598,370.192 54.295,369.89 53.682,369.89L51.831,369.89L51.831,371.731L53.682,371.731Z" style="fill:white;fill-rule:nonzero;"/>
                </g>
                <g>
                    <path d="M59.223,368.502L61.527,368.502L61.527,369.89L59.223,369.89C58.609,369.89 58.297,370.192 58.297,370.815L58.297,372.657C58.297,373.271 58.609,373.582 59.223,373.582L60.148,373.582C60.762,373.582 61.064,373.271 61.064,372.657L61.064,372.194L59.223,372.194L59.223,370.815L62.452,370.815L62.452,372.657C62.452,374.196 61.687,374.961 60.148,374.961L59.223,374.961C57.683,374.961 56.918,374.196 56.918,372.657L56.918,370.815C56.918,369.276 57.683,368.502 59.223,368.502Z" style="fill:white;fill-rule:nonzero;"/>
                </g>
            </g>
            <g id="Bogaudio-Logo" serif:id="Bogaudio Logo">
                <g id="path58">
                    <path d="M77.619,373.913C77.5,373.913 77.4,373.872 77.319,373.792C77.238,373.711 77.197,373.611 77.197,373.492L77.197,368.005C77.197,367.88 77.238,367.781 77.319,367.705C77.4,367.623 77.5,367.583 77.619,367.583L79.556,367.583C79.918,367.583 80.239,367.656 80.521,367.802C80.802,367.942 81.021,368.143 81.177,368.401C81.339,368.656 81.42,368.945 81.42,369.269C81.42,369.534 81.347,369.772 81.201,369.982C81.061,370.193 80.866,370.363 80.618,370.493C80.985,370.579 81.274,370.752 81.485,371.012C81.696,371.271 81.801,371.601 81.801,372C81.801,372.367 81.712,372.697 81.534,372.989C81.361,373.281 81.115,373.508 80.796,373.67C80.482,373.832 80.126,373.913 79.726,373.913L77.619,373.913ZM79.556,370.185C79.874,370.185 80.129,370.106 80.318,369.95C80.513,369.794 80.61,369.566 80.61,369.269C80.61,368.972 80.513,368.748 80.318,368.596C80.129,368.44 79.874,368.362 79.556,368.362L78.04,368.362L78.04,370.185L79.556,370.185ZM79.726,373.135C80.105,373.135 80.409,373.038 80.642,372.843C80.875,372.644 80.99,372.362 80.99,372C80.99,371.666 80.875,371.409 80.642,371.231C80.415,371.052 80.11,370.963 79.726,370.963L78.04,370.963L78.04,373.135L79.726,373.135Z" style="fill:white;fill-rule:nonzero;"/>
                </g>
                <g id="path60">
                    <path d="M87.559,373.994C86.932,373.994 86.373,373.857 85.881,373.581C85.395,373.305 85.017,372.922 84.746,372.43C84.476,371.933 84.342,371.371 84.342,370.744C84.342,370.117 84.476,369.558 84.746,369.067C85.017,368.574 85.395,368.191 85.881,367.915C86.373,367.64 86.932,367.502 87.559,367.502C88.181,367.502 88.734,367.64 89.22,367.915C89.713,368.191 90.093,368.574 90.363,369.067C90.639,369.558 90.776,370.117 90.776,370.744C90.776,371.371 90.639,371.933 90.363,372.43C90.093,372.922 89.715,373.305 89.229,373.581C88.743,373.857 88.186,373.994 87.559,373.994ZM87.559,373.232C88.018,373.232 88.432,373.125 88.799,372.908C89.166,372.687 89.453,372.387 89.658,372.009C89.864,371.63 89.966,371.209 89.966,370.744C89.966,370.28 89.864,369.858 89.658,369.48C89.453,369.101 89.166,368.804 88.799,368.588C88.437,368.372 88.024,368.264 87.559,368.264C87.094,368.264 86.678,368.372 86.311,368.588C85.949,368.804 85.665,369.101 85.46,369.48C85.254,369.858 85.152,370.28 85.152,370.744C85.152,371.209 85.254,371.63 85.46,372.009C85.665,372.387 85.952,372.687 86.319,372.908C86.686,373.125 87.1,373.232 87.559,373.232Z" style="fill:white;fill-rule:nonzero;"/>
                </g>
                <g id="path62">
                    <path d="M98.222,370.631C98.341,370.631 98.438,370.671 98.514,370.752C98.596,370.828 98.635,370.928 98.635,371.052L98.635,372.989C98.635,373.119 98.593,373.219 98.506,373.289C97.939,373.76 97.276,373.994 96.52,373.994C95.943,373.994 95.413,373.851 94.932,373.565C94.456,373.278 94.081,372.887 93.805,372.389C93.529,371.892 93.392,371.344 93.392,370.744C93.392,370.15 93.529,369.607 93.805,369.115C94.081,368.618 94.456,368.226 94.932,367.939C95.413,367.648 95.943,367.502 96.52,367.502C96.931,367.502 97.285,367.557 97.582,367.664C97.884,367.772 98.19,367.951 98.498,368.199C98.563,368.248 98.606,368.299 98.628,368.353C98.649,368.401 98.66,368.461 98.66,368.532C98.66,368.639 98.62,368.729 98.538,368.799C98.463,368.87 98.371,368.904 98.263,368.904C98.166,368.904 98.074,368.87 97.988,368.799C97.766,368.61 97.55,368.474 97.339,368.394C97.128,368.307 96.855,368.264 96.52,368.264C96.099,368.264 95.71,368.375 95.353,368.596C95.002,368.817 94.721,369.121 94.511,369.504C94.305,369.882 94.202,370.295 94.202,370.744C94.202,371.198 94.305,371.614 94.511,371.992C94.721,372.371 95.002,372.671 95.353,372.892C95.71,373.113 96.099,373.225 96.52,373.225C96.974,373.225 97.409,373.089 97.825,372.819L97.825,371.377L96.707,371.377C96.583,371.377 96.48,371.341 96.398,371.271C96.323,371.2 96.286,371.112 96.286,371.003C96.286,370.896 96.323,370.806 96.398,370.736C96.48,370.665 96.583,370.631 96.707,370.631L98.222,370.631Z" style="fill:white;fill-rule:nonzero;"/>
                </g>
                <g id="path64">
                    <path d="M106.455,373.322C106.481,373.392 106.494,373.451 106.494,373.5C106.494,373.614 106.455,373.711 106.373,373.792C106.292,373.872 106.192,373.913 106.073,373.913C105.993,373.913 105.914,373.892 105.838,373.848C105.768,373.799 105.716,373.735 105.684,373.654L105.23,372.519L102.321,372.519L101.859,373.654C101.821,373.735 101.767,373.799 101.697,373.848C101.626,373.892 101.551,373.913 101.47,373.913C101.351,373.913 101.251,373.872 101.169,373.792C101.094,373.705 101.057,373.605 101.057,373.492C101.057,373.437 101.07,373.376 101.097,373.305L103.374,367.867C103.455,367.678 103.588,367.583 103.771,367.583C103.966,367.583 104.099,367.678 104.169,367.867L106.455,373.322ZM104.947,371.822L103.788,368.936L102.604,371.822L104.947,371.822Z" style="fill:white;fill-rule:nonzero;"/>
                </g>
                <g id="path66">
                    <path d="M111.569,374.043C111.056,374.043 110.597,373.948 110.191,373.76C109.792,373.565 109.478,373.298 109.252,372.957C109.03,372.617 108.919,372.228 108.919,371.79L108.919,368.005C108.919,367.88 108.96,367.781 109.041,367.705C109.121,367.623 109.221,367.583 109.34,367.583C109.464,367.583 109.565,367.623 109.641,367.705C109.721,367.781 109.762,367.88 109.762,368.005L109.762,371.79C109.762,372.076 109.838,372.333 109.989,372.559C110.145,372.787 110.359,372.965 110.629,373.094C110.905,373.219 111.219,373.281 111.569,373.281C111.905,373.281 112.204,373.219 112.469,373.094C112.734,372.965 112.939,372.787 113.085,372.559C113.237,372.333 113.312,372.076 113.312,371.79L113.312,368.005C113.312,367.88 113.352,367.781 113.434,367.705C113.515,367.623 113.615,367.583 113.734,367.583C113.852,367.583 113.95,367.623 114.025,367.705C114.106,367.781 114.147,367.88 114.147,368.005L114.147,371.79C114.147,372.222 114.036,372.611 113.814,372.957C113.598,373.298 113.293,373.565 112.899,373.76C112.51,373.948 112.066,374.043 111.569,374.043Z" style="fill:white;fill-rule:nonzero;"/>
                </g>
                <g id="path68">
                    <path d="M117.932,373.913C117.813,373.913 117.713,373.872 117.632,373.792C117.551,373.711 117.51,373.611 117.51,373.492L117.51,368.005C117.51,367.88 117.551,367.781 117.632,367.705C117.713,367.623 117.813,367.583 117.932,367.583L119.399,367.583C120.009,367.583 120.552,367.718 121.028,367.988C121.503,368.258 121.874,368.634 122.139,369.115C122.403,369.59 122.536,370.134 122.536,370.744C122.536,371.355 122.403,371.9 122.139,372.381C121.874,372.862 121.503,373.238 121.028,373.508C120.552,373.778 120.009,373.913 119.399,373.913L117.932,373.913ZM119.399,373.167C119.847,373.167 120.247,373.065 120.598,372.86C120.955,372.654 121.23,372.367 121.425,372C121.625,371.628 121.725,371.209 121.725,370.744C121.725,370.28 121.625,369.863 121.425,369.496C121.23,369.128 120.955,368.842 120.598,368.637C120.247,368.432 119.847,368.329 119.399,368.329L118.353,368.329L118.353,373.167L119.399,373.167Z" style="fill:white;fill-rule:nonzero;"/>
                </g>
                <g id="path70">
                    <path d="M126.016,373.913C125.898,373.913 125.797,373.872 125.717,373.792C125.636,373.711 125.595,373.611 125.595,373.492L125.595,368.005C125.595,367.88 125.636,367.781 125.717,367.705C125.797,367.623 125.898,367.583 126.016,367.583C126.141,367.583 126.241,367.623 126.317,367.705C126.397,367.781 126.438,367.88 126.438,368.005L126.438,373.492C126.438,373.611 126.397,373.711 126.317,373.792C126.241,373.872 126.141,373.913 126.016,373.913Z" style="fill:white;fill-rule:nonzero;"/>
                </g>
                <g id="path72">
                    <path d="M132.727,373.994C132.1,373.994 131.541,373.857 131.049,373.581C130.563,373.305 130.185,372.922 129.915,372.43C129.644,371.933 129.51,371.371 129.51,370.744C129.51,370.117 129.644,369.558 129.915,369.067C130.185,368.574 130.563,368.191 131.049,367.915C131.541,367.64 132.1,367.502 132.727,367.502C133.349,367.502 133.903,367.64 134.389,367.915C134.881,368.191 135.261,368.574 135.532,369.067C135.807,369.558 135.946,370.117 135.946,370.744C135.946,371.371 135.807,371.933 135.532,372.43C135.261,372.922 134.883,373.305 134.397,373.581C133.911,373.857 133.354,373.994 132.727,373.994ZM132.727,373.232C133.187,373.232 133.6,373.125 133.967,372.908C134.335,372.687 134.621,372.387 134.827,372.009C135.032,371.63 135.134,371.209 135.134,370.744C135.134,370.28 135.032,369.858 134.827,369.48C134.621,369.101 134.335,368.804 133.967,368.588C133.605,368.372 133.192,368.264 132.727,368.264C132.263,368.264 131.847,368.372 131.479,368.588C131.117,368.804 130.833,369.101 130.628,369.48C130.422,369.858 130.32,370.28 130.32,370.744C130.32,371.209 130.422,371.63 130.628,372.009C130.833,372.387 131.12,372.687 131.487,372.908C131.854,373.125 132.268,373.232 132.727,373.232Z" style="fill:white;fill-rule:nonzero;"/>
                </g>
            </g>
            <g>
                <path d="M70.588,374.024L71.007,374.513L72.879,374.513L71.635,373.071C72.123,372.419 72.53,371.791 72.635,370.896L71.309,370.849C71.181,371.233 70.972,371.559 70.646,371.919L69.227,370.256L69.751,369.884C70.297,369.5 70.855,368.965 70.855,368.058C70.855,367.79 70.809,367.546 70.716,367.313C70.425,366.627 69.727,366.127 68.75,366.127C68.413,366.127 68.099,366.173 67.82,366.278C67.04,366.58 66.494,367.255 66.494,368.302C66.494,368.616 66.564,368.918 66.703,369.209C66.843,369.5 67.04,369.814 67.285,370.14C67.064,370.291 66.854,370.454 66.668,370.605C66.203,370.989 65.784,371.477 65.784,372.291C65.784,372.629 65.842,372.943 65.97,373.233C66.343,374.106 67.238,374.629 68.483,374.629C69.367,374.629 70.018,374.397 70.588,374.024ZM68.564,373.303C67.89,373.303 67.424,372.873 67.424,372.198C67.424,371.71 67.657,371.419 67.936,371.175L68.052,371.093L69.681,372.978C69.332,373.199 68.96,373.303 68.564,373.303ZM68.739,367.453C69.169,367.453 69.495,367.744 69.495,368.162C69.495,368.639 69.204,368.86 68.901,369.069L68.459,369.36C68.308,369.163 68.192,368.965 68.099,368.79C68.006,368.616 67.959,368.453 67.959,368.279C67.959,367.79 68.238,367.453 68.739,367.453Z" style="fill:white;fill-rule:nonzero;"/>
            </g>
        </g>
        <g>
            <rect x="14.283" y="31.677" width="1.314" height="6.399" style="fill:white;fill-rule:nonzero;"/>
            <path d="M22.023,38.076L22.023,31.677L20.709,31.677L20.709,35.898L18.135,31.677L16.812,31.677L16.812,38.076L18.135,38.076L18.135,33.864L20.7,38.076L22.023,38.076Z" style="fill:white;fill-rule:nonzero;"/>
            <path d="M24.489,35.826L25.668,35.826C26.046,35.826 26.384,35.778 26.681,35.682C27.484,35.422 28.071,34.833 28.071,33.792C28.071,33.492 28.017,33.211 27.909,32.95C27.58,32.154 26.795,31.677 25.668,31.677L23.166,31.677L23.166,38.076L24.489,38.076L24.489,35.826ZM26.739,33.801C26.739,34.445 26.323,34.755 25.668,34.755L24.489,34.755L24.489,32.748L25.668,32.748C26.336,32.748 26.739,33.146 26.739,33.801Z" style="fill:white;fill-rule:nonzero;"/>
            <path d="M31.365,37.104C30.609,37.104 30.231,36.688 30.231,35.898L30.231,31.677L28.917,31.677L28.917,35.898C28.917,36.27 28.977,36.597 29.097,36.879C29.444,37.693 30.215,38.166 31.365,38.166C31.719,38.166 32.046,38.118 32.346,38.022C33.22,37.742 33.822,37.045 33.822,35.898L33.822,31.677L32.499,31.677L32.499,35.898C32.499,36.692 32.129,37.104 31.365,37.104Z" style="fill:white;fill-rule:nonzero;"/>
            <path d="M39.717,32.748L39.717,31.677L34.506,31.677L34.506,32.748L36.432,32.748L36.432,38.076L37.755,38.076L37.755,32.748L39.717,32.748Z" style="fill:white;fill-rule:nonzero;"/>
            <path d="M64.764,37.104C63.661,37.104 63.261,36.257 63.261,35.07L63.261,34.683C63.261,33.54 63.598,32.649 64.638,32.649C65.398,32.649 65.755,33.052 65.853,33.711L67.14,33.711C66.982,32.34 66.145,31.587 64.602,31.587C64.194,31.587 63.825,31.656 63.495,31.794C62.472,32.222 61.92,33.233 61.92,34.692L61.92,35.07C61.92,35.568 61.986,36.007 62.118,36.388C62.48,37.432 63.313,38.166 64.692,38.166C65.799,38.166 66.642,37.841 67.14,37.266L67.14,34.71L64.62,34.71L64.62,35.682L65.817,35.682L65.817,36.789C65.625,37.019 65.2,37.104 64.764,37.104Z" style="fill:white;fill-rule:nonzero;"/>
            <path d="M71.82,36.762L72.261,38.076L73.665,38.076L71.271,31.677L70.047,31.677L67.662,38.076L69.066,38.076L69.507,36.762L71.82,36.762ZM69.867,35.691L70.659,33.297L71.46,35.691L69.867,35.691Z" style="fill:white;fill-rule:nonzero;"/>
            <rect x="74.34" y="31.677" width="1.314" height="6.399" style="fill:white;fill-rule:nonzero;"/>
            <path d="M82.08,38.076L82.08,31.677L80.766,31.677L80.766,35.898L78.192,31.677L76.869,31.677L76.869,38.076L78.192,38.076L78.192,33.864L80.757,38.076L82.08,38.076Z" style="fill:white;fill-rule:nonzero;"/>
            <path d="M96.625,38.076L98.587,38.076C99.019,38.076 99.415,38.002 99.775,37.855C100.815,37.43 101.521,36.477 101.521,35.025L101.521,34.737C101.521,34.281 101.449,33.865 101.305,33.49C100.903,32.445 100.019,31.677 98.596,31.677L96.625,31.677L96.625,38.076ZM100.18,34.728L100.18,35.025C100.18,36.205 99.713,37.014 98.587,37.014L97.948,37.014L97.948,32.748L98.596,32.748C99.726,32.748 100.18,33.539 100.18,34.728Z" style="fill:white;fill-rule:nonzero;"/>
            <path d="M104.914,37.086C103.841,37.086 103.609,36.18 103.609,35.088L103.609,34.665C103.609,33.511 103.894,32.667 104.932,32.667C105.76,32.667 106.134,33.069 106.183,33.846L107.506,33.846C107.351,32.454 106.486,31.587 104.932,31.587C104.529,31.587 104.165,31.659 103.838,31.803C102.848,32.239 102.277,33.247 102.277,34.674L102.277,35.088C102.277,35.562 102.338,35.989 102.461,36.37C102.796,37.408 103.567,38.166 104.914,38.166C105.31,38.166 105.662,38.11 105.971,37.999C106.833,37.69 107.417,37.016 107.497,35.943L106.174,35.943C106.125,36.712 105.734,37.086 104.914,37.086Z" style="fill:white;fill-rule:nonzero;"/>
            <rect x="108.271" y="34.827" width="2.475" height="1.017" style="fill:white;fill-rule:nonzero;"/>
            <path d="M116.578,33.612C116.578,33.294 116.524,33.015 116.416,32.775C116.081,32.031 115.304,31.677 114.22,31.677L111.835,31.677L111.835,38.076L113.158,38.076L113.158,35.736L114.211,35.736L115.408,38.076L116.821,38.076L116.821,38.013L115.435,35.403C116.11,35.088 116.578,34.597 116.578,33.612ZM115.264,33.72C115.264,34.346 114.854,34.665 114.22,34.665L113.158,34.665L113.158,32.748L114.22,32.748C114.885,32.748 115.264,33.081 115.264,33.72Z" style="fill:white;fill-rule:nonzero;"/>
            <path d="M121.429,35.304L121.429,34.269L118.9,34.269L118.9,32.748L121.861,32.748L121.861,31.677L117.577,31.677L117.577,38.076L121.87,38.076L121.87,37.014L118.9,37.014L118.9,35.304L121.429,35.304Z" style="fill:white;fill-rule:nonzero;"/>
            <path d="M124.363,31.677L122.635,31.677L122.635,38.076L123.958,38.076L123.958,36.33L123.823,33.315L125.551,38.076L126.451,38.076L128.179,33.306L128.053,36.33L128.053,38.076L129.376,38.076L129.376,31.677L127.639,31.677L126.01,36.321L124.363,31.677Z" style="fill:white;fill-rule:nonzero;"/>
        </g>
    </g>
    <g id="Components">
        <g id="Ports">
            <g id="Port">
                <g id="PortFrame">
                    <path d="M14.204,192L38.204,192C40.974,192 43.204,194.23 43.204,197L43.204,225C43.204,227.77 40.974,230 38.204,230L14.204,230C11.434,230 9.204,227.77 9.204,225L9.204,197C9.204,194.23 11.434,192 14.204,192Z" style="fill-rule:nonzero;stroke:rgb(178,178,178);stroke-width:1px;"/>
                </g>
            </g>
            <g id="Port1" serif:id="Port">
                <g id="PortFrame1" serif:id="PortFrame">
                    <path d="M14.204,144L38.204,144C40.974,144 43.204,146.23 43.204,149L43.204,177C43.204,179.77 40.974,182 38.204,182L14.204,182C11.434,182 9.204,179.77 9.204,177L9.204,149C9.204,146.23 11.434,144 14.204,144Z" style="fill-rule:nonzero;stroke:rgb(178,178,178);stroke-width:1px;"/>
                </g>
            </g>
            <g id="Port2" serif:id="Port">
                <g id="PortFrame2" serif:id="PortFrame">
                    <path d="M14.204,96L38.204,96C40.974,96 43.204,98.23 43.204,101L43.204,129C43.204,131.77 40.974,134 38.204,134L14.204,134C11.434,134 9.204,131.77 9.204,129L9.204,101C9.204,98.23 11.434,96 14.204,96Z" style="fill-rule:nonzero;stroke:rgb(178,178,178);stroke-width:1px;"/>
                </g>
            </g>
            <g id="Port3" serif:id="Port">
                <g id="PortFrame3" serif:id="PortFrame">
                    <path d="M14.204,48L38.204,48C40.974,48 43.204,50.23 43.204,53L43.204,81C43.204,83.77 40.974,86 38.204,86L14.204,86C11.434,86 9.204,83.77 9.204,81L9.204,53C9.204,50.23 11.434,48 14.204,48Z" style="fill-rule:nonzero;stroke:rgb(178,178,178);stroke-width:1px;"/>
                </g>
            </g>
            <path d="M27.835,226.82C28.001,226.82 28.145,226.757 28.266,226.631C28.387,226.497 28.448,226.336 28.448,226.146L28.448,223.448C28.448,223.265 28.387,223.107 28.266,222.974C28.145,222.84 28.001,222.773 27.835,222.773L24.774,222.773L24.774,226.82L27.835,226.82ZM23.549,228.169L23.549,221.424L28.448,221.424C28.786,221.424 29.073,221.558 29.309,221.825C29.551,222.092 29.672,222.408 29.672,222.773L29.672,226.82C29.672,227.2 29.551,227.52 29.309,227.78C29.066,228.039 28.779,228.169 28.448,228.169L23.549,228.169Z" style="fill:white;fill-rule:nonzero;"/>
            <path d="M24.774,180.169C24.429,180.169 24.139,180.039 23.903,179.78C23.667,179.513 23.549,179.193 23.549,178.82L23.549,174.773C23.549,174.401 23.667,174.085 23.903,173.825C24.145,173.558 24.436,173.424 24.774,173.424L28.448,173.424C28.786,173.424 29.073,173.558 29.309,173.825C29.551,174.092 29.672,174.408 29.672,174.773L29.672,175.448L28.448,175.448C28.448,175.265 28.387,175.107 28.266,174.974C28.145,174.84 28.001,174.773 27.835,174.773L25.386,174.773C25.214,174.773 25.067,174.84 24.946,174.974C24.831,175.107 24.774,175.265 24.774,175.448L24.774,178.146C24.774,178.336 24.831,178.497 24.946,178.631C25.067,178.757 25.214,178.82 25.386,178.82L27.835,178.82C28.001,178.82 28.145,178.757 28.266,178.631C28.387,178.497 28.448,178.336 28.448,178.146L29.672,178.146L29.672,178.82C29.672,179.2 29.551,179.52 29.309,179.78C29.066,180.039 28.779,180.169 28.448,180.169L24.774,180.169Z" style="fill:white;fill-rule:nonzero;"/>
            <path d="M27.835,129.82C28.001,129.82 28.145,129.757 28.266,129.631C28.387,129.497 28.448,129.336 28.448,129.146C28.448,128.963 28.387,128.805 28.266,128.672C28.145,128.538 28.001,128.471 27.835,128.471L24.774,128.471L24.774,129.82L27.835,129.82ZM27.835,127.122C28.001,127.122 28.145,127.059 28.266,126.933C28.387,126.799 28.448,126.638 28.448,126.448C28.448,126.265 28.387,126.107 28.266,125.974C28.145,125.84 28.001,125.773 27.835,125.773L24.774,125.773L24.774,127.122L27.835,127.122ZM23.549,131.169L23.549,124.424L28.448,124.424C28.786,124.424 29.073,124.558 29.309,124.825C29.551,125.092 29.672,125.408 29.672,125.773L29.672,127.122C29.672,127.375 29.618,127.604 29.51,127.807C29.618,128.004 29.672,128.225 29.672,128.471L29.672,129.82C29.672,130.2 29.551,130.52 29.309,130.78C29.066,131.039 28.779,131.169 28.448,131.169L23.549,131.169Z" style="fill:white;fill-rule:nonzero;"/>
            <path d="M27.608,81.146L26.689,79.122L25.771,81.146L27.608,81.146ZM23.627,83.169L26.689,76.424L29.751,83.169L28.526,83.169L28.22,82.495L25.158,82.495L24.852,83.169L23.627,83.169Z" style="fill:white;fill-rule:nonzero;"/>
        </g>
        <g id="Gain-Scales" serif:id="Gain Scales">
            <g id="Scale-D" serif:id="Scale D">
                <g>
                    <g id="scale">
                        <g id="g58207">
                            <g id="g58169">
                                <path id="polyline58167" d="M59.01,217L56.845,218.25" style="fill:none;fill-rule:nonzero;stroke:rgb(204,204,204);stroke-width:0.7px;stroke-linejoin:miter;stroke-miterlimit:4;"/>
                            </g>
                            <g id="g58173">
                                <path id="polyline58171" d="M57,209.5L54.5,209.5" style="fill:none;fill-rule:nonzero;stroke:rgb(204,204,204);stroke-width:0.7px;stroke-linejoin:miter;stroke-miterlimit:4;"/>
                            </g>
                            <g id="g58177">
                                <path id="polyline58175" d="M59.01,202L56.845,200.75" style="fill:none;fill-rule:nonzero;stroke:rgb(204,204,204);stroke-width:0.7px;stroke-linejoin:miter;stroke-miterlimit:4;"/>
                            </g>
                            <g id="g58181">
                                <path id="polyline58179" d="M64.5,196.51L63.25,194.345" style="fill:none;fill-rule:nonzero;stroke:rgb(204,204,204);stroke-width:0.7px;stroke-linejoin:miter;stroke-miterlimit:4;"/>
                            </g>
                            <g id="g58185">
                                <path id="polyline58183" d="M72,194.5L72,192" style="fill:none;fill-rule:nonzero;stroke:rgb(204,204,204);stroke-width:0.7px;stroke-linejoin:miter;stroke-miterlimit:4;"/>
                            </g>
                            <g id="g58189">
                                <path id="polyline58187" d="M79.5,196.51L80.75,194.345" style="fill:none;fill-rule:nonzero;stroke:rgb(204,204,204);stroke-width:0.7px;stroke-linejoin:miter;stroke-miterlimit:4;"/>
                            </g>
                            <g id="g58193">
                                <path id="polyline58191" d="M84.99,202L87.155,200.75" style="fill:none;fill-rule:nonzero;stroke:rgb(204,204,204);stroke-width:0.7px;stroke-linejoin:miter;stroke-miterlimit:4;"/>
                            </g>
                            <g id="g58197">
                                <path id="polyline58195" d="M87,209.5L89.5,209.5" style="fill:none;fill-rule:nonzero;stroke:rgb(204,204,204);stroke-width:0.7px;stroke-linejoin:miter;stroke-miterlimit:4;"/>
                            </g>
                            <g id="g58201">
                                <path id="polyline58199" d="M84.99,217L87.155,218.25" style="fill:none;fill-rule:nonzero;stroke:rgb(204,204,204);stroke-width:0.7px;stroke-linejoin:miter;stroke-miterlimit:4;"/>
                            </g>
                        </g>
                    </g>
                </g>
                <g>
                    <rect x="54.643" y="226.347" width="2.336" height="0.641" style="fill:white;fill-rule:nonzero;"/>
                    <path d="M61.905,228.796L58.698,228.796L58.698,228.163L60.011,228.163L60.011,224.437L58.788,225.101L58.538,224.523L60.163,223.667L60.764,223.667L60.764,228.163L61.905,228.163L61.905,228.796Z" style="fill:white;fill-rule:nonzero;"/>
                    <path d="M83.874,226.964L82.339,226.964L82.339,228.558L81.667,228.558L81.667,226.964L80.132,226.964L80.132,226.37L81.667,226.37L81.667,224.788L82.339,224.788L82.339,226.37L83.874,226.37L83.874,226.964Z" style="fill:white;fill-rule:nonzero;"/>
                    <path d="M88.097,228.796L84.89,228.796L84.89,228.163L86.202,228.163L86.202,224.437L84.98,225.101L84.73,224.523L86.355,223.667L86.956,223.667L86.956,228.163L88.097,228.163L88.097,228.796Z" style="fill:white;fill-rule:nonzero;"/>
                </g>
            </g>
            <g id="Scale-C" serif:id="Scale C">
                <g>
                    <g id="scale1" serif:id="scale">
                        <g id="g582071" serif:id="g58207">
                            <g id="g581691" serif:id="g58169">
                                <path id="polyline581671" serif:id="polyline58167" d="M59.01,169L56.845,170.25" style="fill:none;fill-rule:nonzero;stroke:rgb(204,204,204);stroke-width:0.7px;stroke-linejoin:miter;stroke-miterlimit:4;"/>
                            </g>
                            <g id="g581731" serif:id="g58173">
                                <path id="polyline581711" serif:id="polyline58171" d="M57,161.5L54.5,161.5" style="fill:none;fill-rule:nonzero;stroke:rgb(204,204,204);stroke-width:0.7px;stroke-linejoin:miter;stroke-miterlimit:4;"/>
                            </g>
                            <g id="g581771" serif:id="g58177">
                                <path id="polyline581751" serif:id="polyline58175" d="M59.01,154L56.845,152.75" style="fill:none;fill-rule:nonzero;stroke:rgb(204,204,204);stroke-width:0.7px;stroke-linejoin:miter;stroke-miterlimit:4;"/>
                            </g>
                            <g id="g581811" serif:id="g58181">
                                <path id="polyline581791" serif:id="polyline58179" d="M64.5,148.51L63.25,146.345" style="fill:none;fill-rule:nonzero;stroke:rgb(204,204,204);stroke-width:0.7px;stroke-linejoin:miter;stroke-miterlimit:4;"/>
                            </g>
                            <g id="g581851" serif:id="g58185">
                                <path id="polyline581831" serif:id="polyline58183" d="M72,146.5L72,144" style="fill:none;fill-rule:nonzero;stroke:rgb(204,204,204);stroke-width:0.7px;stroke-linejoin:miter;stroke-miterlimit:4;"/>
                            </g>
                            <g id="g581891" serif:id="g58189">
                                <path id="polyline581871" serif:id="polyline58187" d="M79.5,148.51L80.75,146.345" style="fill:none;fill-rule:nonzero;stroke:rgb(204,204,204);stroke-width:0.7px;stroke-linejoin:miter;stroke-miterlimit:4;"/>
                            </g>
                            <g id="g581931" serif:id="g58193">
                                <path id="polyline581911" serif:id="polyline58191" d="M84.99,154L87.155,152.75" style="fill:none;fill-rule:nonzero;stroke:rgb(204,204,204);stroke-width:0.7px;stroke-linejoin:miter;stroke-miterlimit:4;"/>
                            </g>
                            <g id="g581971" serif:id="g58197">
                                <path id="polyline581951" serif:id="polyline58195" d="M87,161.5L89.5,161.5" style="fill:none;fill-rule:nonzero;stroke:rgb(204,204,204);stroke-width:0.7px;stroke-linejoin:miter;stroke-miterlimit:4;"/>
                            </g>
                            <g id="g582011" serif:id="g58201">
                                <path id="polyline581991" serif:id="polyline58199" d="M84.99,169L87.155,170.25" style="fill:none;fill-rule:nonzero;stroke:rgb(204,204,204);stroke-width:0.7px;stroke-linejoin:miter;stroke-miterlimit:4;"/>
                            </g>
                        </g>
                    </g>
                </g>
                <g>
                    <rect x="54.643" y="178.347" width="2.336" height="0.641" style="fill:white;fill-rule:nonzero;"/>
                    <path d="M61.905,180.796L58.698,180.796L58.698,180.163L60.011,180.163L60.011,176.437L58.788,177.101L58.538,176.523L60.163,175.667L60.764,175.667L60.764,180.163L61.905,180.163L61.905,180.796Z" style="fill:white;fill-rule:nonzero;"/>
                    <path d="M83.874,178.964L82.339,178.964L82.339,180.558L81.667,180.558L81.667,178.964L80.132,178.964L80.132,178.37L81.667,178.37L81.667,176.788L82.339,176.788L82.339,178.37L83.874,178.37L83.874,178.964Z" style="fill:white;fill-rule:nonzero;"/>
                    <path d="M88.097,180.796L84.89,180.796L84.89,180.163L86.202,180.163L86.202,176.437L84.98,177.101L84.73,176.523L86.355,175.667L86.956,175.667L86.956,180.163L88.097,180.163L88.097,180.796Z" style="fill:white;fill-rule:nonzero;"/>
                </g>
            </g>
            <g id="Scale-B" serif:id="Scale B">
                <g>
                    <g id="scale2" serif:id="scale">
                        <g id="g582072" serif:id="g58207">
                            <g id="g581692" serif:id="g58169">
                                <path id="polyline581672" serif:id="polyline58167" d="M59.01,120.703L56.845,121.953" style="fill:none;fill-rule:nonzero;stroke:rgb(204,204,204);stroke-width:0.7px;stroke-linejoin:miter;stroke-miterlimit:4;"/>
                            </g>
                            <g id="g581732" serif:id="g58173">
                                <path id="polyline581712" serif:id="polyline58171" d="M57,113.203L54.5,113.203" style="fill:none;fill-rule:nonzero;stroke:rgb(204,204,204);stroke-width:0.7px;stroke-linejoin:miter;stroke-miterlimit:4;"/>
                            </g>
                            <g id="g581772" serif:id="g58177">
                                <path id="polyline581752" serif:id="polyline58175" d="M59.01,105.703L56.845,104.453" style="fill:none;fill-rule:nonzero;stroke:rgb(204,204,204);stroke-width:0.7px;stroke-linejoin:miter;stroke-miterlimit:4;"/>
                            </g>
                            <g id="g581812" serif:id="g58181">
                                <path id="polyline581792" serif:id="polyline58179" d="M64.5,100.213L63.25,98.048" style="fill:none;fill-rule:nonzero;stroke:rgb(204,204,204);stroke-width:0.7px;stroke-linejoin:miter;stroke-miterlimit:4;"/>
                            </g>
                            <g id="g581852" serif:id="g58185">
                                <path id="polyline581832" serif:id="polyline58183" d="M72,98.203L72,95.703" style="fill:none;fill-rule:nonzero;stroke:rgb(204,204,204);stroke-width:0.7px;stroke-linejoin:miter;stroke-miterlimit:4;"/>
                            </g>
                            <g id="g581892" serif:id="g58189">
                                <path id="polyline581872" serif:id="polyline58187" d="M79.5,100.213L80.75,98.048" style="fill:none;fill-rule:nonzero;stroke:rgb(204,204,204);stroke-width:0.7px;stroke-linejoin:miter;stroke-miterlimit:4;"/>
                            </g>
                            <g id="g581932" serif:id="g58193">
                                <path id="polyline581912" serif:id="polyline58191" d="M84.99,105.703L87.155,104.453" style="fill:none;fill-rule:nonzero;stroke:rgb(204,204,204);stroke-width:0.7px;stroke-linejoin:miter;stroke-miterlimit:4;"/>
                            </g>
                            <g id="g581972" serif:id="g58197">
                                <path id="polyline581952" serif:id="polyline58195" d="M87,113.203L89.5,113.203" style="fill:none;fill-rule:nonzero;stroke:rgb(204,204,204);stroke-width:0.7px;stroke-linejoin:miter;stroke-miterlimit:4;"/>
                            </g>
                            <g id="g582012" serif:id="g58201">
                                <path id="polyline581992" serif:id="polyline58199" d="M84.99,120.703L87.155,121.953" style="fill:none;fill-rule:nonzero;stroke:rgb(204,204,204);stroke-width:0.7px;stroke-linejoin:miter;stroke-miterlimit:4;"/>
                            </g>
                        </g>
                    </g>
                </g>
                <g>
                    <rect x="54.643" y="130.347" width="2.336" height="0.641" style="fill:white;fill-rule:nonzero;"/>
                    <path d="M61.905,132.796L58.698,132.796L58.698,132.163L60.011,132.163L60.011,128.437L58.788,129.101L58.538,128.523L60.163,127.667L60.764,127.667L60.764,132.163L61.905,132.163L61.905,132.796Z" style="fill:white;fill-rule:nonzero;"/>
                    <path d="M83.874,130.964L82.339,130.964L82.339,132.558L81.667,132.558L81.667,130.964L80.132,130.964L80.132,130.37L81.667,130.37L81.667,128.788L82.339,128.788L82.339,130.37L83.874,130.37L83.874,130.964Z" style="fill:white;fill-rule:nonzero;"/>
                    <path d="M88.097,132.796L84.89,132.796L84.89,132.163L86.202,132.163L86.202,128.437L84.98,129.101L84.73,128.523L86.355,127.667L86.956,127.667L86.956,132.163L88.097,132.163L88.097,132.796Z" style="fill:white;fill-rule:nonzero;"/>
                </g>
            </g>
            <g id="Scale-A" serif:id="Scale A">
                <g>
                    <g id="scale3" serif:id="scale">
                        <g id="g582073" serif:id="g58207">
                            <g id="g581693" serif:id="g58169">
                                <path id="polyline581673" serif:id="polyline58167" d="M59.01,73L56.845,74.25" style="fill:none;fill-rule:nonzero;stroke:rgb(204,204,204);stroke-width:0.7px;stroke-linejoin:miter;stroke-miterlimit:4;"/>
                            </g>
                            <g id="g581733" serif:id="g58173">
                                <path id="polyline581713" serif:id="polyline58171" d="M57,65.5L54.5,65.5" style="fill:none;fill-rule:nonzero;stroke:rgb(204,204,204);stroke-width:0.7px;stroke-linejoin:miter;stroke-miterlimit:4;"/>
                            </g>
                            <g id="g581773" serif:id="g58177">
                                <path id="polyline581753" serif:id="polyline58175" d="M59.01,58L56.845,56.75" style="fill:none;fill-rule:nonzero;stroke:rgb(204,204,204);stroke-width:0.7px;stroke-linejoin:miter;stroke-miterlimit:4;"/>
                            </g>
                            <g id="g581813" serif:id="g58181">
                                <path id="polyline581793" serif:id="polyline58179" d="M64.5,52.51L63.25,50.345" style="fill:none;fill-rule:nonzero;stroke:rgb(204,204,204);stroke-width:0.7px;stroke-linejoin:miter;stroke-miterlimit:4;"/>
                            </g>
                            <g id="g581853" serif:id="g58185">
                                <path id="polyline581833" serif:id="polyline58183" d="M72,50.5L72,48" style="fill:none;fill-rule:nonzero;stroke:rgb(204,204,204);stroke-width:0.7px;stroke-linejoin:miter;stroke-miterlimit:4;"/>
                            </g>
                            <g id="g581893" serif:id="g58189">
                                <path id="polyline581873" serif:id="polyline58187" d="M79.5,52.51L80.75,50.345" style="fill:none;fill-rule:nonzero;stroke:rgb(204,204,204);stroke-width:0.7px;stroke-linejoin:miter;stroke-miterlimit:4;"/>
                            </g>
                            <g id="g581933" serif:id="g58193">
                                <path id="polyline581913" serif:id="polyline58191" d="M84.99,58L87.155,56.75" style="fill:none;fill-rule:nonzero;stroke:rgb(204,204,204);stroke-width:0.7px;stroke-linejoin:miter;stroke-miterlimit:4;"/>
                            </g>
                            <g id="g581973" serif:id="g58197">
                                <path id="polyline581953" serif:id="polyline58195" d="M87,65.5L89.5,65.5" style="fill:none;fill-rule:nonzero;stroke:rgb(204,204,204);stroke-width:0.7px;stroke-linejoin:miter;stroke-miterlimit:4;"/>
                            </g>
                            <g id="g582013" serif:id="g58201">
                                <path id="polyline581993" serif:id="polyline58199" d="M84.99,73L87.155,74.25" style="fill:none;fill-rule:nonzero;stroke:rgb(204,204,204);stroke-width:0.7px;stroke-linejoin:miter;stroke-miterlimit:4;"/>
                            </g>
                        </g>
                    </g>
                </g>
                <g>
                    <rect x="54.643" y="82.347" width="2.336" height="0.641" style="fill:white;fill-rule:nonzero;"/>
                    <path d="M61.905,84.796L58.698,84.796L58.698,84.163L60.011,84.163L60.011,80.437L58.788,81.101L58.538,80.523L60.163,79.667L60.764,79.667L60.764,84.163L61.905,84.163L61.905,84.796Z" style="fill:white;fill-rule:nonzero;"/>
                    <path d="M83.874,82.964L82.339,82.964L82.339,84.558L81.667,84.558L81.667,82.964L80.132,82.964L80.132,82.37L81.667,82.37L81.667,80.788L82.339,80.788L82.339,82.37L83.874,82.37L83.874,82.964Z" style="fill:white;fill-rule:nonzero;"/>
                    <path d="M88.097,84.796L84.89,84.796L84.89,84.163L86.202,84.163L86.202,80.437L84.98,81.101L84.73,80.523L86.355,79.667L86.956,79.667L86.956,84.163L88.097,84.163L88.097,84.796Z" style="fill:white;fill-rule:nonzero;"/>
                </g>
            </g>
        </g>
        <g id="DC-Switches" serif:id="DC Switches">
            <g id="SW-Label-C" serif:id="SW Label C">
                <path d="M120.212,201.115L120.212,200.891C120.212,200.123 119.988,199.51 119.624,199.099C119.285,198.719 118.781,198.441 118.097,198.441C117.785,198.441 117.499,198.499 117.24,198.613C116.448,198.963 115.976,199.749 115.976,200.891L115.976,201.115C115.976,201.882 116.206,202.498 116.571,202.904C116.91,203.281 117.423,203.559 118.104,203.559C118.417,203.559 118.703,203.501 118.962,203.387C119.756,203.037 120.212,202.262 120.212,201.115ZM118.104,202.719C117.932,202.719 117.778,202.684 117.642,202.614C117.188,202.379 117.012,201.818 117.012,201.116L117.012,200.885C117.012,200.006 117.298,199.289 118.097,199.289C118.9,199.289 119.175,200 119.175,200.885L119.175,201.116C119.175,201.993 118.903,202.719 118.104,202.719Z" style="fill:white;fill-rule:nonzero;"/>
                <path d="M123.95,201.451L123.95,200.625L121.983,200.625L121.983,199.344L124.195,199.344L124.195,198.511L120.954,198.511L120.954,203.488L121.983,203.488L121.983,201.451L123.95,201.451Z" style="fill:white;fill-rule:nonzero;"/>
                <path d="M127.779,201.451L127.779,200.625L125.812,200.625L125.812,199.344L128.024,199.344L128.024,198.511L124.783,198.511L124.783,203.488L125.812,203.488L125.812,201.451L127.779,201.451Z" style="fill:white;fill-rule:nonzero;"/>
                <path d="M121.72,217.115L121.72,216.891C121.72,216.123 121.497,215.51 121.132,215.099C120.794,214.719 120.289,214.441 119.606,214.441C119.293,214.441 119.007,214.499 118.748,214.613C117.956,214.963 117.485,215.749 117.485,216.891L117.485,217.115C117.485,217.882 117.715,218.498 118.08,218.904C118.419,219.281 118.932,219.559 119.613,219.559C119.926,219.559 120.211,219.501 120.47,219.387C121.264,219.037 121.72,218.262 121.72,217.115ZM119.613,218.719C119.44,218.719 119.286,218.684 119.151,218.614C118.697,218.379 118.521,217.818 118.521,217.116L118.521,216.885C118.521,216.006 118.806,215.289 119.606,215.289C120.409,215.289 120.684,216 120.684,216.885L120.684,217.116C120.684,217.993 120.412,218.719 119.613,218.719Z" style="fill:white;fill-rule:nonzero;"/>
                <path d="M126.515,219.488L126.515,214.511L125.493,214.511L125.493,217.794L123.491,214.511L122.462,214.511L122.462,219.488L123.491,219.488L123.491,216.212L125.486,219.488L126.515,219.488Z" style="fill:white;fill-rule:nonzero;"/>
            </g>
            <g id="SW-Label-B" serif:id="SW Label B">
                <path d="M120.212,153.115L120.212,152.891C120.212,152.123 119.988,151.51 119.624,151.099C119.285,150.719 118.781,150.441 118.097,150.441C117.785,150.441 117.499,150.499 117.24,150.613C116.448,150.963 115.976,151.749 115.976,152.891L115.976,153.115C115.976,153.882 116.206,154.498 116.571,154.904C116.91,155.281 117.423,155.559 118.104,155.559C118.417,155.559 118.703,155.501 118.962,155.387C119.756,155.037 120.212,154.262 120.212,153.115ZM118.104,154.719C117.932,154.719 117.778,154.684 117.642,154.614C117.188,154.379 117.012,153.818 117.012,153.116L117.012,152.885C117.012,152.006 117.298,151.289 118.097,151.289C118.9,151.289 119.175,152 119.175,152.885L119.175,153.116C119.175,153.993 118.903,154.719 118.104,154.719Z" style="fill:white;fill-rule:nonzero;"/>
                <path d="M123.95,153.451L123.95,152.625L121.983,152.625L121.983,151.344L124.195,151.344L124.195,150.511L120.954,150.511L120.954,155.488L121.983,155.488L121.983,153.451L123.95,153.451Z" style="fill:white;fill-rule:nonzero;"/>
                <path d="M127.779,153.451L127.779,152.625L125.812,152.625L125.812,151.344L128.024,151.344L128.024,150.511L124.783,150.511L124.783,155.488L125.812,155.488L125.812,153.451L127.779,153.451Z" style="fill:white;fill-rule:nonzero;"/>
                <path d="M121.72,169.115L121.72,168.891C121.72,168.123 121.497,167.51 121.132,167.099C120.794,166.719 120.289,166.441 119.606,166.441C119.293,166.441 119.007,166.499 118.748,166.613C117.956,166.963 117.485,167.749 117.485,168.891L117.485,169.115C117.485,169.882 117.715,170.498 118.08,170.904C118.419,171.281 118.932,171.559 119.613,171.559C119.926,171.559 120.211,171.501 120.47,171.387C121.264,171.037 121.72,170.262 121.72,169.115ZM119.613,170.719C119.44,170.719 119.286,170.684 119.151,170.614C118.697,170.379 118.521,169.818 118.521,169.116L118.521,168.885C118.521,168.006 118.806,167.289 119.606,167.289C120.409,167.289 120.684,168 120.684,168.885L120.684,169.116C120.684,169.993 120.412,170.719 119.613,170.719Z" style="fill:white;fill-rule:nonzero;"/>
                <path d="M126.515,171.488L126.515,166.511L125.493,166.511L125.493,169.794L123.491,166.511L122.462,166.511L122.462,171.488L123.491,171.488L123.491,168.212L125.486,171.488L126.515,171.488Z" style="fill:white;fill-rule:nonzero;"/>
            </g>
            <g id="SW-Label-B1" serif:id="SW Label B">
                <path d="M120.212,105.115L120.212,104.891C120.212,104.123 119.988,103.51 119.624,103.099C119.285,102.719 118.781,102.441 118.097,102.441C117.785,102.441 117.499,102.499 117.24,102.613C116.448,102.963 115.976,103.749 115.976,104.891L115.976,105.115C115.976,105.882 116.206,106.498 116.571,106.904C116.91,107.281 117.423,107.559 118.104,107.559C118.417,107.559 118.703,107.501 118.962,107.387C119.756,107.037 120.212,106.262 120.212,105.115ZM118.104,106.719C117.932,106.719 117.778,106.684 117.642,106.614C117.188,106.379 117.012,105.818 117.012,105.116L117.012,104.885C117.012,104.006 117.298,103.289 118.097,103.289C118.9,103.289 119.175,104 119.175,104.885L119.175,105.116C119.175,105.993 118.903,106.719 118.104,106.719Z" style="fill:white;fill-rule:nonzero;"/>
                <path d="M123.95,105.451L123.95,104.625L121.983,104.625L121.983,103.344L124.195,103.344L124.195,102.511L120.954,102.511L120.954,107.488L121.983,107.488L121.983,105.451L123.95,105.451Z" style="fill:white;fill-rule:nonzero;"/>
                <path d="M127.779,105.451L127.779,104.625L125.812,104.625L125.812,103.344L128.024,103.344L128.024,102.511L124.783,102.511L124.783,107.488L125.812,107.488L125.812,105.451L127.779,105.451Z" style="fill:white;fill-rule:nonzero;"/>
                <path d="M121.72,121.115L121.72,120.891C121.72,120.123 121.497,119.51 121.132,119.099C120.794,118.719 120.289,118.441 119.606,118.441C119.293,118.441 119.007,118.499 118.748,118.613C117.956,118.963 117.485,119.749 117.485,120.891L117.485,121.115C117.485,121.882 117.715,122.498 118.08,122.904C118.419,123.281 118.932,123.559 119.613,123.559C119.926,123.559 120.211,123.501 120.47,123.387C121.264,123.037 121.72,122.262 121.72,121.115ZM119.613,122.719C119.44,122.719 119.286,122.684 119.151,122.614C118.697,122.379 118.521,121.818 118.521,121.116L118.521,120.885C118.521,120.006 118.806,119.289 119.606,119.289C120.409,119.289 120.684,120 120.684,120.885L120.684,121.116C120.684,121.993 120.412,122.719 119.613,122.719Z" style="fill:white;fill-rule:nonzero;"/>
                <path d="M126.515,123.488L126.515,118.511L125.493,118.511L125.493,121.794L123.491,118.511L122.462,118.511L122.462,123.488L123.491,123.488L123.491,120.212L125.486,123.488L126.515,123.488Z" style="fill:white;fill-rule:nonzero;"/>
            </g>
            <g id="SW-Label-A" serif:id="SW Label A">
                <path d="M120.824,57.423L120.824,57.199C120.824,56.431 120.601,55.817 120.236,55.407C119.898,55.026 119.394,54.749 118.71,54.749C118.398,54.749 118.112,54.806 117.853,54.92C117.061,55.27 116.589,56.056 116.589,57.199L116.589,57.423C116.589,58.189 116.819,58.805 117.184,59.212C117.523,59.588 118.036,59.866 118.717,59.866C119.03,59.866 119.316,59.809 119.575,59.695C120.369,59.344 120.824,58.57 120.824,57.423ZM118.717,59.026C118.545,59.026 118.391,58.991 118.255,58.921C117.801,58.686 117.625,58.126 117.625,57.423L117.625,57.192C117.625,56.313 117.911,55.596 118.71,55.596C119.513,55.596 119.788,56.307 119.788,57.192L119.788,57.423C119.788,58.3 119.516,59.026 118.717,59.026Z" style="fill:white;fill-rule:nonzero;"/>
                <path d="M124.562,57.759L124.562,56.933L122.595,56.933L122.595,55.652L124.807,55.652L124.807,54.819L121.566,54.819L121.566,59.796L122.595,59.796L122.595,57.759L124.562,57.759Z" style="fill:white;fill-rule:nonzero;"/>
                <path d="M128.391,57.759L128.391,56.933L126.424,56.933L126.424,55.652L128.636,55.652L128.636,54.819L125.395,54.819L125.395,59.796L126.424,59.796L126.424,57.759L128.391,57.759Z" style="fill:white;fill-rule:nonzero;"/>
                <path d="M122.333,73.423L122.333,73.199C122.333,72.431 122.11,71.817 121.745,71.407C121.407,71.026 120.902,70.749 120.219,70.749C119.906,70.749 119.62,70.806 119.361,70.92C118.569,71.27 118.098,72.056 118.098,73.199L118.098,73.423C118.098,74.189 118.328,74.805 118.693,75.212C119.032,75.588 119.545,75.866 120.226,75.866C120.539,75.866 120.824,75.809 121.083,75.695C121.877,75.344 122.333,74.57 122.333,73.423ZM120.226,75.026C120.053,75.026 119.899,74.991 119.764,74.921C119.31,74.686 119.134,74.126 119.134,73.423L119.134,73.192C119.134,72.313 119.419,71.596 120.219,71.596C121.022,71.596 121.297,72.307 121.297,73.192L121.297,73.423C121.297,74.3 121.025,75.026 120.226,75.026Z" style="fill:white;fill-rule:nonzero;"/>
                <path d="M127.128,75.796L127.128,70.819L126.106,70.819L126.106,74.102L124.104,70.819L123.075,70.819L123.075,75.796L124.104,75.796L124.104,72.52L126.099,75.796L127.128,75.796Z" style="fill:white;fill-rule:nonzero;"/>
            </g>
        </g>
        <g id="Lines">
            <path d="M186,245.031C186,245.445 185.664,245.781 185.25,245.781L4.75,245.781C4.336,245.781 4,245.445 4,245.031C4,244.617 4.336,244.281 4.75,244.281L185.25,244.281C185.664,244.281 186,244.617 186,245.031Z" style="fill:white;fill-opacity:0.56;"/>
            <rect x="190" y="-0" width="1" height="380" style="fill:rgb(74,74,74);"/>
        </g>
        <g id="Scale-A1" serif:id="Scale A">
            <g>
                <g id="scale4" serif:id="scale">
                    <g id="g582074" serif:id="g58207">
                        <g id="g581694" serif:id="g58169">
                            <path id="polyline581674" serif:id="polyline58167" d="M13.214,277L11.049,278.25" style="fill:none;fill-rule:nonzero;stroke:rgb(204,204,204);stroke-width:0.7px;stroke-linejoin:miter;stroke-miterlimit:4;"/>
                        </g>
                        <g id="g581734" serif:id="g58173">
                            <path id="polyline581714" serif:id="polyline58171" d="M11.204,269.5L8.704,269.5" style="fill:none;fill-rule:nonzero;stroke:rgb(204,204,204);stroke-width:0.7px;stroke-linejoin:miter;stroke-miterlimit:4;"/>
                        </g>
                        <g id="g581774" serif:id="g58177">
                            <path id="polyline581754" serif:id="polyline58175" d="M13.214,262L11.049,260.75" style="fill:none;fill-rule:nonzero;stroke:rgb(204,204,204);stroke-width:0.7px;stroke-linejoin:miter;stroke-miterlimit:4;"/>
                        </g>
                        <g id="g581814" serif:id="g58181">
                            <path id="polyline581794" serif:id="polyline58179" d="M18.704,256.51L17.454,254.345" style="fill:none;fill-rule:nonzero;stroke:rgb(204,204,204);stroke-width:0.7px;stroke-linejoin:miter;stroke-miterlimit:4;"/>
                        </g>
                        <g id="g581854" serif:id="g58185">
                            <path id="polyline581834" serif:id="polyline58183" d="M26.204,254.5L26.204,252" style="fill:none;fill-rule:nonzero;stroke:rgb(204,204,204);stroke-width:0.7px;stroke-linejoin:miter;stroke-miterlimit:4;"/>
                        </g>
                        <g id="g581894" serif:id="g58189">
                            <path id="polyline581874" serif:id="polyline58187" d="M33.704,256.51L34.954,254.345" style="fill:none;fill-rule:nonzero;stroke:rgb(204,204,204);stroke-width:0.7px;stroke-linejoin:miter;stroke-miterlimit:4;"/>
                        </g>
                        <g id="g581934" serif:id="g58193">
                            <path id="polyline581914" serif:id="polyline58191" d="M39.194,262L41.36,260.75" style="fill:none;fill-rule:nonzero;stroke:rgb(204,204,204);stroke-width:0.7px;stroke-linejoin:miter;stroke-miterlimit:4;"/>
                        </g>
                        <g id="g581974" serif:id="g58197">
                            <path id="polyline581954" serif:id="polyline58195" d="M41.204,269.5L43.704,269.5" style="fill:none;fill-rule:nonzero;stroke:rgb(204,204,204);stroke-width:0.7px;stroke-linejoin:miter;stroke-miterlimit:4;"/>
                        </g>
                        <g id="g582014" serif:id="g58201">
                            <path id="polyline581994" serif:id="polyline58199" d="M39.194,277L41.36,278.25" style="fill:none;fill-rule:nonzero;stroke:rgb(204,204,204);stroke-width:0.7px;stroke-linejoin:miter;stroke-miterlimit:4;"/>
                        </g>
                    </g>
                </g>
            </g>
            <g>
                <rect x="8.847" y="286.347" width="2.336" height="0.641" style="fill:white;fill-rule:nonzero;"/>
                <path d="M16.109,288.796L12.902,288.796L12.902,288.163L14.215,288.163L14.215,284.437L12.992,285.101L12.742,284.523L14.367,283.667L14.968,283.667L14.968,288.163L16.109,288.163L16.109,288.796Z" style="fill:white;fill-rule:nonzero;"/>
                <path d="M38.078,286.964L36.543,286.964L36.543,288.558L35.871,288.558L35.871,286.964L34.336,286.964L34.336,286.37L35.871,286.37L35.871,284.788L36.543,284.788L36.543,286.37L38.078,286.37L38.078,286.964Z" style="fill:white;fill-rule:nonzero;"/>
                <path d="M42.301,288.796L39.094,288.796L39.094,288.163L40.406,288.163L40.406,284.437L39.184,285.101L38.934,284.523L40.559,283.667L41.16,283.667L41.16,288.163L42.301,288.163L42.301,288.796Z" style="fill:white;fill-rule:nonzero;"/>
            </g>
        </g>
        <g id="Scale-A2" serif:id="Scale A">
            <g>
                <g id="scale5" serif:id="scale">
                    <g id="g582075" serif:id="g58207">
                        <g id="g581695" serif:id="g58169">
                            <path id="polyline581675" serif:id="polyline58167" d="M59.01,277L56.845,278.25" style="fill:none;fill-rule:nonzero;stroke:rgb(204,204,204);stroke-width:0.7px;stroke-linejoin:miter;stroke-miterlimit:4;"/>
                        </g>
                        <g id="g581735" serif:id="g58173">
                            <path id="polyline581715" serif:id="polyline58171" d="M57,269.5L54.5,269.5" style="fill:none;fill-rule:nonzero;stroke:rgb(204,204,204);stroke-width:0.7px;stroke-linejoin:miter;stroke-miterlimit:4;"/>
                        </g>
                        <g id="g581775" serif:id="g58177">
                            <path id="polyline581755" serif:id="polyline58175" d="M59.01,262L56.845,260.75" style="fill:none;fill-rule:nonzero;stroke:rgb(204,204,204);stroke-width:0.7px;stroke-linejoin:miter;stroke-miterlimit:4;"/>
                        </g>
                        <g id="g581815" serif:id="g58181">
                            <path id="polyline581795" serif:id="polyline58179" d="M64.5,256.51L63.25,254.345" style="fill:none;fill-rule:nonzero;stroke:rgb(204,204,204);stroke-width:0.7px;stroke-linejoin:miter;stroke-miterlimit:4;"/>
                        </g>
                        <g id="g581855" serif:id="g58185">
                            <path id="polyline581835" serif:id="polyline58183" d="M72,254.5L72,252" style="fill:none;fill-rule:nonzero;stroke:rgb(204,204,204);stroke-width:0.7px;stroke-linejoin:miter;stroke-miterlimit:4;"/>
                        </g>
                        <g id="g581895" serif:id="g58189">
                            <path id="polyline581875" serif:id="polyline58187" d="M79.5,256.51L80.75,254.345" style="fill:none;fill-rule:nonzero;stroke:rgb(204,204,204);stroke-width:0.7px;stroke-linejoin:miter;stroke-miterlimit:4;"/>
                        </g>
                        <g id="g581935" serif:id="g58193">
                            <path id="polyline581915" serif:id="polyline58191" d="M84.99,262L87.155,260.75" style="fill:none;fill-rule:nonzero;stroke:rgb(204,204,204);stroke-width:0.7px;stroke-linejoin:miter;stroke-miterlimit:4;"/>
                        </g>
                        <g id="g581975" serif:id="g58197">
                            <path id="polyline581955" serif:id="polyline58195" d="M87,269.5L89.5,269.5" style="fill:none;fill-rule:nonzero;stroke:rgb(204,204,204);stroke-width:0.7px;stroke-linejoin:miter;stroke-miterlimit:4;"/>
                        </g>
                        <g id="g582015" serif:id="g58201">
                            <path id="polyline581995" serif:id="polyline58199" d="M84.99,277L87.155,278.25" style="fill:none;fill-rule:nonzero;stroke:rgb(204,204,204);stroke-width:0.7px;stroke-linejoin:miter;stroke-miterlimit:4;"/>
                        </g>
                    </g>
                </g>
            </g>
            <g>
                <rect x="54.643" y="286.347" width="2.336" height="0.641" style="fill:white;fill-rule:nonzero;"/>
                <path d="M61.905,288.796L58.698,288.796L58.698,288.163L60.011,288.163L60.011,284.437L58.788,285.101L58.538,284.523L60.163,283.667L60.764,283.667L60.764,288.163L61.905,288.163L61.905,288.796Z" style="fill:white;fill-rule:nonzero;"/>
                <path d="M83.874,286.964L82.339,286.964L82.339,288.558L81.667,288.558L81.667,286.964L80.132,286.964L80.132,286.37L81.667,286.37L81.667,284.788L82.339,284.788L82.339,286.37L83.874,286.37L83.874,286.964Z" style="fill:white;fill-rule:nonzero;"/>
                <path d="M88.097,288.796L84.89,288.796L84.89,288.163L86.202,288.163L86.202,284.437L84.98,285.101L84.73,284.523L86.355,283.667L86.956,283.667L86.956,288.163L88.097,288.163L88.097,288.796Z" style="fill:white;fill-rule:nonzero;"/>
            </g>
        </g>
        <g id="Scale-A3" serif:id="Scale A">
            <g>
                <g id="scale6" serif:id="scale">
                    <g id="g582076" serif:id="g58207">
                        <g id="g581696" serif:id="g58169">
                            <path id="polyline581676" serif:id="polyline58167" d="M105.01,277L102.845,278.25" style="fill:none;fill-rule:nonzero;stroke:rgb(204,204,204);stroke-width:0.7px;stroke-linejoin:miter;stroke-miterlimit:4;"/>
                        </g>
                        <g id="g581736" serif:id="g58173">
                            <path id="polyline581716" serif:id="polyline58171" d="M103,269.5L100.5,269.5" style="fill:none;fill-rule:nonzero;stroke:rgb(204,204,204);stroke-width:0.7px;stroke-linejoin:miter;stroke-miterlimit:4;"/>
                        </g>
                        <g id="g581776" serif:id="g58177">
                            <path id="polyline581756" serif:id="polyline58175" d="M105.01,262L102.845,260.75" style="fill:none;fill-rule:nonzero;stroke:rgb(204,204,204);stroke-width:0.7px;stroke-linejoin:miter;stroke-miterlimit:4;"/>
                        </g>
                        <g id="g581816" serif:id="g58181">
                            <path id="polyline581796" serif:id="polyline58179" d="M110.5,256.51L109.25,254.345" style="fill:none;fill-rule:nonzero;stroke:rgb(204,204,204);stroke-width:0.7px;stroke-linejoin:miter;stroke-miterlimit:4;"/>
                        </g>
                        <g id="g581856" serif:id="g58185">
                            <path id="polyline581836" serif:id="polyline58183" d="M118,254.5L118,252" style="fill:none;fill-rule:nonzero;stroke:rgb(204,204,204);stroke-width:0.7px;stroke-linejoin:miter;stroke-miterlimit:4;"/>
                        </g>
                        <g id="g581896" serif:id="g58189">
                            <path id="polyline581876" serif:id="polyline58187" d="M125.5,256.51L126.75,254.345" style="fill:none;fill-rule:nonzero;stroke:rgb(204,204,204);stroke-width:0.7px;stroke-linejoin:miter;stroke-miterlimit:4;"/>
                        </g>
                        <g id="g581936" serif:id="g58193">
                            <path id="polyline581916" serif:id="polyline58191" d="M130.99,262L133.155,260.75" style="fill:none;fill-rule:nonzero;stroke:rgb(204,204,204);stroke-width:0.7px;stroke-linejoin:miter;stroke-miterlimit:4;"/>
                        </g>
                        <g id="g581976" serif:id="g58197">
                            <path id="polyline581956" serif:id="polyline58195" d="M133,269.5L135.5,269.5" style="fill:none;fill-rule:nonzero;stroke:rgb(204,204,204);stroke-width:0.7px;stroke-linejoin:miter;stroke-miterlimit:4;"/>
                        </g>
                        <g id="g582016" serif:id="g58201">
                            <path id="polyline581996" serif:id="polyline58199" d="M130.99,277L133.155,278.25" style="fill:none;fill-rule:nonzero;stroke:rgb(204,204,204);stroke-width:0.7px;stroke-linejoin:miter;stroke-miterlimit:4;"/>
                        </g>
                    </g>
                </g>
            </g>
            <g>
                <rect x="100.643" y="286.347" width="2.336" height="0.641" style="fill:white;fill-rule:nonzero;"/>
                <path d="M107.905,288.796L104.698,288.796L104.698,288.163L106.011,288.163L106.011,284.437L104.788,285.101L104.538,284.523L106.163,283.667L106.764,283.667L106.764,288.163L107.905,288.163L107.905,288.796Z" style="fill:white;fill-rule:nonzero;"/>
                <path d="M129.874,286.964L128.339,286.964L128.339,288.558L127.667,288.558L127.667,286.964L126.132,286.964L126.132,286.37L127.667,286.37L127.667,284.788L128.339,284.788L128.339,286.37L129.874,286.37L129.874,286.964Z" style="fill:white;fill-rule:nonzero;"/>
                <path d="M134.097,288.796L130.89,288.796L130.89,288.163L132.202,288.163L132.202,284.437L130.98,285.101L130.73,284.523L132.355,283.667L132.956,283.667L132.956,288.163L134.097,288.163L134.097,288.796Z" style="fill:white;fill-rule:nonzero;"/>
            </g>
        </g>
        <g id="Scale-A4" serif:id="Scale A">
            <g>
                <g id="scale7" serif:id="scale">
                    <g id="g582077" serif:id="g58207">
                        <g id="g581697" serif:id="g58169">
                            <path id="polyline581677" serif:id="polyline58167" d="M151.01,277L148.845,278.25" style="fill:none;fill-rule:nonzero;stroke:rgb(204,204,204);stroke-width:0.7px;stroke-linejoin:miter;stroke-miterlimit:4;"/>
                        </g>
                        <g id="g581737" serif:id="g58173">
                            <path id="polyline581717" serif:id="polyline58171" d="M149,269.5L146.5,269.5" style="fill:none;fill-rule:nonzero;stroke:rgb(204,204,204);stroke-width:0.7px;stroke-linejoin:miter;stroke-miterlimit:4;"/>
                        </g>
                        <g id="g581777" serif:id="g58177">
                            <path id="polyline581757" serif:id="polyline58175" d="M151.01,262L148.845,260.75" style="fill:none;fill-rule:nonzero;stroke:rgb(204,204,204);stroke-width:0.7px;stroke-linejoin:miter;stroke-miterlimit:4;"/>
                        </g>
                        <g id="g581817" serif:id="g58181">
                            <path id="polyline581797" serif:id="polyline58179" d="M156.5,256.51L155.25,254.345" style="fill:none;fill-rule:nonzero;stroke:rgb(204,204,204);stroke-width:0.7px;stroke-linejoin:miter;stroke-miterlimit:4;"/>
                        </g>
                        <g id="g581857" serif:id="g58185">
                            <path id="polyline581837" serif:id="polyline58183" d="M164,254.5L164,252" style="fill:none;fill-rule:nonzero;stroke:rgb(204,204,204);stroke-width:0.7px;stroke-linejoin:miter;stroke-miterlimit:4;"/>
                        </g>
                        <g id="g581897" serif:id="g58189">
                            <path id="polyline581877" serif:id="polyline58187" d="M171.5,256.51L172.75,254.345" style="fill:none;fill-rule:nonzero;stroke:rgb(204,204,204);stroke-width:0.7px;stroke-linejoin:miter;stroke-miterlimit:4;"/>
                        </g>
                        <g id="g581937" serif:id="g58193">
                            <path id="polyline581917" serif:id="polyline58191" d="M176.99,262L179.155,260.75" style="fill:none;fill-rule:nonzero;stroke:rgb(204,204,204);stroke-width:0.7px;stroke-linejoin:miter;stroke-miterlimit:4;"/>
                        </g>
                        <g id="g581977" serif:id="g58197">
                            <path id="polyline581957" serif:id="polyline58195" d="M179,269.5L181.5,269.5" style="fill:none;fill-rule:nonzero;stroke:rgb(204,204,204);stroke-width:0.7px;stroke-linejoin:miter;stroke-miterlimit:4;"/>
                        </g>
                        <g id="g582017" serif:id="g58201">
                            <path id="polyline581997" serif:id="polyline58199" d="M176.99,277L179.155,278.25" style="fill:none;fill-rule:nonzero;stroke:rgb(204,204,204);stroke-width:0.7px;stroke-linejoin:miter;stroke-miterlimit:4;"/>
                        </g>
                    </g>
                </g>
            </g>
            <g>
                <rect x="146.643" y="286.347" width="2.336" height="0.641" style="fill:white;fill-rule:nonzero;"/>
                <path d="M153.905,288.796L150.698,288.796L150.698,288.163L152.011,288.163L152.011,284.437L150.788,285.101L150.538,284.523L152.163,283.667L152.764,283.667L152.764,288.163L153.905,288.163L153.905,288.796Z" style="fill:white;fill-rule:nonzero;"/>
                <path d="M175.874,286.964L174.339,286.964L174.339,288.558L173.667,288.558L173.667,286.964L172.132,286.964L172.132,286.37L173.667,286.37L173.667,284.788L174.339,284.788L174.339,286.37L175.874,286.37L175.874,286.964Z" style="fill:white;fill-rule:nonzero;"/>
                <path d="M180.097,288.796L176.89,288.796L176.89,288.163L178.202,288.163L178.202,284.437L176.98,285.101L176.73,284.523L178.355,283.667L178.956,283.667L178.956,288.163L180.097,288.163L180.097,288.796Z" style="fill:white;fill-rule:nonzero;"/>
            </g>
        </g>
        <g id="SW-Label-A1" serif:id="SW Label A">
            <path d="M32.416,314.115L32.416,313.891C32.416,313.123 32.192,312.51 31.828,312.099C31.489,311.719 30.985,311.441 30.302,311.441C29.989,311.441 29.703,311.499 29.444,311.613C28.652,311.963 28.181,312.749 28.181,313.891L28.181,314.115C28.181,314.882 28.41,315.498 28.776,315.904C29.114,316.281 29.627,316.559 30.309,316.559C30.621,316.559 30.907,316.501 31.166,316.387C31.96,316.037 32.416,315.262 32.416,314.115ZM30.309,315.719C30.136,315.719 29.982,315.684 29.847,315.614C29.393,315.379 29.217,314.818 29.217,314.116L29.217,313.885C29.217,313.006 29.502,312.289 30.302,312.289C31.104,312.289 31.38,313 31.38,313.885L31.38,314.116C31.38,314.993 31.107,315.719 30.309,315.719Z" style="fill:white;fill-rule:nonzero;"/>
            <path d="M36.154,314.451L36.154,313.625L34.187,313.625L34.187,312.344L36.399,312.344L36.399,311.511L33.158,311.511L33.158,316.488L34.187,316.488L34.187,314.451L36.154,314.451Z" style="fill:white;fill-rule:nonzero;"/>
            <path d="M39.983,314.451L39.983,313.625L38.016,313.625L38.016,312.344L40.228,312.344L40.228,311.511L36.987,311.511L36.987,316.488L38.016,316.488L38.016,314.451L39.983,314.451Z" style="fill:white;fill-rule:nonzero;"/>
            <path d="M33.924,330.115L33.924,329.891C33.924,329.123 33.701,328.51 33.336,328.099C32.998,327.719 32.493,327.441 31.81,327.441C31.497,327.441 31.212,327.499 30.953,327.613C30.161,327.963 29.689,328.749 29.689,329.891L29.689,330.115C29.689,330.882 29.919,331.498 30.284,331.904C30.623,332.281 31.136,332.559 31.817,332.559C32.13,332.559 32.416,332.501 32.675,332.387C33.468,332.037 33.924,331.262 33.924,330.115ZM31.817,331.719C31.644,331.719 31.49,331.684 31.355,331.614C30.901,331.379 30.725,330.818 30.725,330.116L30.725,329.885C30.725,329.006 31.01,328.289 31.81,328.289C32.613,328.289 32.888,329 32.888,329.885L32.888,330.116C32.888,330.993 32.616,331.719 31.817,331.719Z" style="fill:white;fill-rule:nonzero;"/>
            <path d="M38.719,332.488L38.719,327.511L37.697,327.511L37.697,330.794L35.695,327.511L34.666,327.511L34.666,332.488L35.695,332.488L35.695,329.212L37.69,332.488L38.719,332.488Z" style="fill:white;fill-rule:nonzero;"/>
        </g>
        <g id="SW-Label-A2" serif:id="SW Label A">
            <path d="M78.212,314.115L78.212,313.891C78.212,313.123 77.988,312.51 77.624,312.099C77.285,311.719 76.781,311.441 76.097,311.441C75.785,311.441 75.499,311.499 75.24,311.613C74.448,311.963 73.976,312.749 73.976,313.891L73.976,314.115C73.976,314.882 74.206,315.498 74.571,315.904C74.91,316.281 75.423,316.559 76.104,316.559C76.417,316.559 76.703,316.501 76.962,316.387C77.756,316.037 78.212,315.262 78.212,314.115ZM76.104,315.719C75.932,315.719 75.778,315.684 75.642,315.614C75.188,315.379 75.012,314.818 75.012,314.116L75.012,313.885C75.012,313.006 75.298,312.289 76.097,312.289C76.9,312.289 77.175,313 77.175,313.885L77.175,314.116C77.175,314.993 76.903,315.719 76.104,315.719Z" style="fill:white;fill-rule:nonzero;"/>
            <path d="M81.95,314.451L81.95,313.625L79.983,313.625L79.983,312.344L82.195,312.344L82.195,311.511L78.954,311.511L78.954,316.488L79.983,316.488L79.983,314.451L81.95,314.451Z" style="fill:white;fill-rule:nonzero;"/>
            <path d="M85.779,314.451L85.779,313.625L83.812,313.625L83.812,312.344L86.024,312.344L86.024,311.511L82.783,311.511L82.783,316.488L83.812,316.488L83.812,314.451L85.779,314.451Z" style="fill:white;fill-rule:nonzero;"/>
            <path d="M79.72,330.115L79.72,329.891C79.72,329.123 79.497,328.51 79.132,328.099C78.794,327.719 78.289,327.441 77.606,327.441C77.293,327.441 77.007,327.499 76.748,327.613C75.956,327.963 75.485,328.749 75.485,329.891L75.485,330.115C75.485,330.882 75.715,331.498 76.08,331.904C76.419,332.281 76.932,332.559 77.613,332.559C77.926,332.559 78.211,332.501 78.47,332.387C79.264,332.037 79.72,331.262 79.72,330.115ZM77.613,331.719C77.44,331.719 77.286,331.684 77.151,331.614C76.697,331.379 76.521,330.818 76.521,330.116L76.521,329.885C76.521,329.006 76.806,328.289 77.606,328.289C78.409,328.289 78.684,329 78.684,329.885L78.684,330.116C78.684,330.993 78.412,331.719 77.613,331.719Z" style="fill:white;fill-rule:nonzero;"/>
            <path d="M84.515,332.488L84.515,327.511L83.493,327.511L83.493,330.794L81.491,327.511L80.462,327.511L80.462,332.488L81.491,332.488L81.491,329.212L83.486,332.488L84.515,332.488Z" style="fill:white;fill-rule:nonzero;"/>
        </g>
        <g id="SW-Label-A3" serif:id="SW Label A">
            <path d="M124.212,314.115L124.212,313.891C124.212,313.123 123.988,312.51 123.624,312.099C123.285,311.719 122.781,311.441 122.097,311.441C121.785,311.441 121.499,311.499 121.24,311.613C120.448,311.963 119.976,312.749 119.976,313.891L119.976,314.115C119.976,314.882 120.206,315.498 120.571,315.904C120.91,316.281 121.423,316.559 122.104,316.559C122.417,316.559 122.703,316.501 122.962,316.387C123.756,316.037 124.212,315.262 124.212,314.115ZM122.104,315.719C121.932,315.719 121.778,315.684 121.642,315.614C121.188,315.379 121.012,314.818 121.012,314.116L121.012,313.885C121.012,313.006 121.298,312.289 122.097,312.289C122.9,312.289 123.175,313 123.175,313.885L123.175,314.116C123.175,314.993 122.903,315.719 122.104,315.719Z" style="fill:white;fill-rule:nonzero;"/>
            <path d="M127.95,314.451L127.95,313.625L125.983,313.625L125.983,312.344L128.195,312.344L128.195,311.511L124.954,311.511L124.954,316.488L125.983,316.488L125.983,314.451L127.95,314.451Z" style="fill:white;fill-rule:nonzero;"/>
            <path d="M131.779,314.451L131.779,313.625L129.812,313.625L129.812,312.344L132.024,312.344L132.024,311.511L128.783,311.511L128.783,316.488L129.812,316.488L129.812,314.451L131.779,314.451Z" style="fill:white;fill-rule:nonzero;"/>
            <path d="M125.72,330.115L125.72,329.891C125.72,329.123 125.497,328.51 125.132,328.099C124.794,327.719 124.289,327.441 123.606,327.441C123.293,327.441 123.007,327.499 122.748,327.613C121.956,327.963 121.485,328.749 121.485,329.891L121.485,330.115C121.485,330.882 121.715,331.498 122.08,331.904C122.419,332.281 122.932,332.559 123.613,332.559C123.926,332.559 124.211,332.501 124.47,332.387C125.264,332.037 125.72,331.262 125.72,330.115ZM123.613,331.719C123.44,331.719 123.286,331.684 123.151,331.614C122.697,331.379 122.521,330.818 122.521,330.116L122.521,329.885C122.521,329.006 122.806,328.289 123.606,328.289C124.409,328.289 124.684,329 124.684,329.885L124.684,330.116C124.684,330.993 124.412,331.719 123.613,331.719Z" style="fill:white;fill-rule:nonzero;"/>
            <path d="M130.515,332.488L130.515,327.511L129.493,327.511L129.493,330.794L127.491,327.511L126.462,327.511L126.462,332.488L127.491,332.488L127.491,329.212L129.486,332.488L130.515,332.488Z" style="fill:white;fill-rule:nonzero;"/>
        </g>
        <g>
            <circle cx="26.204" cy="269.461" r="4" style="fill:white;"/>
            <circle cx="118" cy="269.461" r="4" style="fill:white;"/>
            <circle cx="164" cy="269.461" r="4" style="fill:white;"/>
            <circle cx="72" cy="269.461" r="4" style="fill:white;"/>
        </g>
        <g>
            <circle cx="20.204" cy="322" r="4" style="fill:white;"/>
            <circle cx="112" cy="322" r="4" style="fill:white;"/>
            <circle cx="66" cy="322" r="4" style="fill:white;"/>
        </g>
    </g>
</svg>
